<?xml version="1.0" encoding="utf-8"?>
<!-- Generator: Adobe Illustrator 24.0.1, SVG Export Plug-In . SVG Version: 6.00 Build 0)  -->
<svg version="1.1" id="Layer_1" xmlns="http://www.w3.org/2000/svg" xmlns:xlink="http://www.w3.org/1999/xlink" x="0px" y="0px"
	 viewBox="0 0 395.2 232.4" style="enable-background:new 0 0 395.2 232.4;" xml:space="preserve">
<style type="text/css">
	.st0{fill:#C2E8FB;stroke:#414042;stroke-width:0.5;stroke-miterlimit:10;}
	.st1{stroke:#000000;stroke-miterlimit:10;}
	.st2{stroke:#C2E8FB;stroke-width:5;stroke-miterlimit:10;}
	.st3{stroke:#FFFFFF;stroke-width:5;stroke-miterlimit:10;}
	.st4{fill:none;stroke:#000000;stroke-width:5;stroke-miterlimit:10;}
	.st5{fill:none;stroke:#58595B;stroke-width:0.5;stroke-miterlimit:10;}
</style>
<rect x="0.5" y="-0.9" class="st0" width="394.7" height="234"/>
<g>
	<ellipse class="st1" cx="237.4" cy="151" rx="15.7" ry="17.8"/>
	<path class="st1" d="M204.6,218.1v-42.3c0-4.6,3.7-8.3,8.3-8.3h48.4c4.6,0,8.3,3.7,8.3,8.3v42.3"/>
	<line class="st2" x1="219.8" y1="186.2" x2="219.8" y2="218.4"/>
	<line class="st2" x1="252.4" y1="185.6" x2="252.4" y2="218.4"/>
</g>
<g>
	<ellipse class="st1" cx="115.7" cy="142.1" rx="15.7" ry="17.8"/>
	<path class="st1" d="M82.8,209.1v-42.3c0-4.6,3.7-8.3,8.3-8.3h48.4c4.6,0,8.3,3.7,8.3,8.3v42.3"/>
	<line class="st2" x1="98.1" y1="177.2" x2="98.1" y2="209.4"/>
	<line class="st2" x1="130.7" y1="176.7" x2="130.7" y2="209.4"/>
</g>
<g>
	<ellipse class="st1" cx="57.4" cy="126.7" rx="15.7" ry="17.8"/>
	<path class="st1" d="M24.6,193.7v-42.3c0-4.6,3.7-8.3,8.3-8.3h48.4c4.6,0,8.3,3.7,8.3,8.3v42.3"/>
	<line class="st2" x1="39.8" y1="161.9" x2="39.8" y2="194.1"/>
	<line class="st2" x1="72.4" y1="161.3" x2="72.4" y2="194.1"/>
</g>
<g>
	<ellipse class="st1" cx="329.1" cy="120" rx="15.7" ry="17.8"/>
	<path class="st1" d="M296.2,187v-42.3c0-4.6,3.7-8.3,8.3-8.3h48.4c4.6,0,8.3,3.7,8.3,8.3V187"/>
	<line class="st2" x1="311.5" y1="155.1" x2="311.5" y2="187.3"/>
	<line class="st2" x1="344.1" y1="154.6" x2="344.1" y2="187.3"/>
</g>
<g>
	<ellipse class="st1" cx="188.8" cy="37.5" rx="29.7" ry="22.8"/>
	<circle class="st3" cx="188.8" cy="37.5" r="12.3"/>
</g>
<g>
	<line class="st4" x1="225.1" y1="46.7" x2="237.8" y2="56"/>
	<line class="st4" x1="242" y1="59.1" x2="254.7" y2="68.4"/>
	<line class="st4" x1="259.8" y1="72.2" x2="272.5" y2="81.6"/>
	<line class="st4" x1="276.5" y1="84.5" x2="289.2" y2="93.8"/>
	<line class="st4" x1="293.8" y1="97.2" x2="306.5" y2="106.5"/>
</g>
<g>
	<line class="st4" x1="158.4" y1="49.4" x2="145.7" y2="58.7"/>
	<line class="st4" x1="141.5" y1="61.8" x2="128.8" y2="71.1"/>
	<line class="st4" x1="123.6" y1="74.9" x2="110.9" y2="84.2"/>
	<line class="st4" x1="106.9" y1="87.2" x2="94.2" y2="96.5"/>
	<line class="st4" x1="89.7" y1="99.9" x2="77" y2="109.2"/>
</g>
<rect x="0.2" y="0.2" class="st5" width="394.7" height="231.9"/>
</svg>
