<?xml version="1.0" encoding="utf-8"?>
<!-- Generator: Adobe Illustrator 24.2.1, SVG Export Plug-In . SVG Version: 6.00 Build 0)  -->
<svg version="1.1" id="Layer_1" xmlns="http://www.w3.org/2000/svg" xmlns:xlink="http://www.w3.org/1999/xlink" x="0px" y="0px"
	 viewBox="0 0 553.2 311.5" style="enable-background:new 0 0 553.2 311.5;" xml:space="preserve">
<style type="text/css">
	.st0{fill:none;stroke:#212628;stroke-width:0.5;stroke-miterlimit:10;}
	.st1{opacity:0.5;fill:#C1E9FB;stroke:#212628;stroke-width:0.5;stroke-miterlimit:10;enable-background:new    ;}
	.st2{fill:none;}
	.st3{enable-background:new    ;}
</style>
<rect x="0.2" y="0.2" class="st0" width="552.7" height="311"/>
<g>
	<circle class="st1" cx="341.8" cy="181.5" r="117.7"/>
	<circle class="st1" cx="215.1" cy="181.5" r="117.7"/>
</g>
<rect x="51.1" y="22.1" class="st2" width="448.7" height="21.8"/>
<g class="st3">
	<path d="M52,30.7v-8.6h1.7l2,6.1c0.2,0.6,0.3,1,0.4,1.3c0.1-0.3,0.2-0.8,0.5-1.4l2.1-6h1.5v8.6h-1.1v-7.2l-2.5,7.2h-1l-2.5-7.3v7.3
		H52z"/>
	<path d="M65.9,29.9c-0.4,0.3-0.8,0.6-1.1,0.7s-0.7,0.2-1.2,0.2c-0.7,0-1.2-0.2-1.6-0.5s-0.6-0.8-0.6-1.3c0-0.3,0.1-0.6,0.2-0.8
		s0.3-0.5,0.5-0.6s0.5-0.3,0.8-0.3c0.2-0.1,0.5-0.1,0.9-0.2c0.9-0.1,1.5-0.2,1.9-0.4c0-0.1,0-0.2,0-0.3c0-0.4-0.1-0.7-0.3-0.9
		c-0.3-0.2-0.7-0.4-1.2-0.4c-0.5,0-0.9,0.1-1.1,0.3s-0.4,0.5-0.5,0.9l-1-0.1c0.1-0.4,0.2-0.8,0.5-1.1s0.5-0.5,0.9-0.6
		s0.9-0.2,1.4-0.2c0.5,0,1,0.1,1.3,0.2s0.6,0.3,0.7,0.5s0.3,0.4,0.3,0.7c0,0.2,0.1,0.5,0.1,1V28c0,1,0,1.6,0.1,1.9s0.1,0.5,0.3,0.7
		h-1.1C66,30.4,66,30.2,65.9,29.9z M65.8,27.5c-0.4,0.2-1,0.3-1.7,0.4c-0.4,0.1-0.7,0.1-0.9,0.2s-0.3,0.2-0.4,0.3s-0.1,0.3-0.1,0.5
		c0,0.3,0.1,0.5,0.3,0.7s0.5,0.3,0.9,0.3c0.4,0,0.8-0.1,1.1-0.3s0.5-0.4,0.7-0.7c0.1-0.2,0.2-0.6,0.2-1.1V27.5z"/>
	<path d="M68.6,23.3v-1.2h1.1v1.2H68.6z M68.6,30.7v-6.2h1.1v6.2H68.6z"/>
	<path d="M71.2,30.7v-6.2h0.9v0.9c0.5-0.7,1.1-1,2-1c0.4,0,0.7,0.1,1,0.2s0.5,0.3,0.7,0.5s0.3,0.5,0.3,0.8c0,0.2,0.1,0.5,0.1,1v3.8
		h-1.1v-3.8c0-0.4,0-0.8-0.1-1s-0.2-0.4-0.4-0.5s-0.5-0.2-0.7-0.2c-0.4,0-0.8,0.1-1.2,0.4s-0.5,0.8-0.5,1.6v3.4H71.2z"/>
	<path d="M85.3,28.4l1,0.1c-0.1,0.7-0.4,1.3-0.9,1.7s-1,0.6-1.7,0.6c-0.9,0-1.5-0.3-2.1-0.8s-0.8-1.4-0.8-2.4c0-0.7,0.1-1.3,0.3-1.8
		s0.6-0.9,1-1.1s1-0.4,1.5-0.4c0.7,0,1.2,0.2,1.7,0.5s0.7,0.8,0.8,1.5l-1,0.2c-0.1-0.4-0.3-0.7-0.5-0.9s-0.5-0.3-0.9-0.3
		c-0.5,0-1,0.2-1.3,0.6s-0.5,1-0.5,1.8c0,0.8,0.2,1.4,0.5,1.8s0.7,0.6,1.3,0.6c0.4,0,0.8-0.1,1-0.4S85.2,28.9,85.3,28.4z"/>
	<path d="M87.2,30.7v-8.6h1.1v3.1c0.5-0.6,1.1-0.9,1.9-0.9c0.5,0,0.9,0.1,1.2,0.3s0.6,0.4,0.7,0.8s0.2,0.8,0.2,1.4v3.9h-1.1v-3.9
		c0-0.5-0.1-0.9-0.3-1.2s-0.6-0.4-1-0.4c-0.3,0-0.6,0.1-0.9,0.2s-0.5,0.4-0.6,0.7s-0.2,0.7-0.2,1.1v3.4H87.2z"/>
	<path d="M98,29.9c-0.4,0.3-0.8,0.6-1.1,0.7s-0.7,0.2-1.2,0.2c-0.7,0-1.2-0.2-1.6-0.5s-0.6-0.8-0.6-1.3c0-0.3,0.1-0.6,0.2-0.8
		s0.3-0.5,0.5-0.6s0.5-0.3,0.8-0.3c0.2-0.1,0.5-0.1,0.9-0.2c0.9-0.1,1.5-0.2,1.9-0.4c0-0.1,0-0.2,0-0.3c0-0.4-0.1-0.7-0.3-0.9
		c-0.3-0.2-0.7-0.4-1.2-0.4c-0.5,0-0.9,0.1-1.1,0.3s-0.4,0.5-0.5,0.9l-1-0.1c0.1-0.4,0.2-0.8,0.5-1.1s0.5-0.5,0.9-0.6
		s0.9-0.2,1.4-0.2c0.5,0,1,0.1,1.3,0.2s0.6,0.3,0.7,0.5s0.3,0.4,0.3,0.7c0,0.2,0.1,0.5,0.1,1V28c0,1,0,1.6,0.1,1.9s0.1,0.5,0.3,0.7
		h-1.1C98.1,30.4,98,30.2,98,29.9z M97.9,27.5c-0.4,0.2-1,0.3-1.7,0.4c-0.4,0.1-0.7,0.1-0.9,0.2s-0.3,0.2-0.4,0.3s-0.1,0.3-0.1,0.5
		c0,0.3,0.1,0.5,0.3,0.7s0.5,0.3,0.9,0.3c0.4,0,0.8-0.1,1.1-0.3s0.5-0.4,0.7-0.7c0.1-0.2,0.2-0.6,0.2-1.1V27.5z"/>
	<path d="M100.6,30.7v-6.2h0.9v0.9c0.2-0.4,0.5-0.7,0.7-0.9s0.4-0.2,0.7-0.2c0.4,0,0.7,0.1,1.1,0.3l-0.4,1c-0.3-0.2-0.5-0.2-0.8-0.2
		c-0.2,0-0.4,0.1-0.6,0.2s-0.3,0.3-0.4,0.6c-0.1,0.4-0.2,0.8-0.2,1.2v3.3H100.6z"/>
	<path d="M108.6,29.9c-0.4,0.3-0.8,0.6-1.1,0.7s-0.7,0.2-1.2,0.2c-0.7,0-1.2-0.2-1.6-0.5s-0.6-0.8-0.6-1.3c0-0.3,0.1-0.6,0.2-0.8
		s0.3-0.5,0.5-0.6s0.5-0.3,0.8-0.3c0.2-0.1,0.5-0.1,0.9-0.2c0.9-0.1,1.5-0.2,1.9-0.4c0-0.1,0-0.2,0-0.3c0-0.4-0.1-0.7-0.3-0.9
		c-0.3-0.2-0.7-0.4-1.2-0.4c-0.5,0-0.9,0.1-1.1,0.3s-0.4,0.5-0.5,0.9l-1-0.1c0.1-0.4,0.2-0.8,0.5-1.1s0.5-0.5,0.9-0.6
		s0.9-0.2,1.4-0.2c0.5,0,1,0.1,1.3,0.2s0.6,0.3,0.7,0.5s0.3,0.4,0.3,0.7c0,0.2,0.1,0.5,0.1,1V28c0,1,0,1.6,0.1,1.9s0.1,0.5,0.3,0.7
		h-1.1C108.7,30.4,108.7,30.2,108.6,29.9z M108.5,27.5c-0.4,0.2-1,0.3-1.7,0.4c-0.4,0.1-0.7,0.1-0.9,0.2s-0.3,0.2-0.4,0.3
		s-0.1,0.3-0.1,0.5c0,0.3,0.1,0.5,0.3,0.7s0.5,0.3,0.9,0.3c0.4,0,0.8-0.1,1.1-0.3s0.5-0.4,0.7-0.7c0.1-0.2,0.2-0.6,0.2-1.1V27.5z"/>
	<path d="M115.3,28.4l1,0.1c-0.1,0.7-0.4,1.3-0.9,1.7s-1,0.6-1.7,0.6c-0.9,0-1.5-0.3-2.1-0.8s-0.8-1.4-0.8-2.4
		c0-0.7,0.1-1.3,0.3-1.8s0.6-0.9,1-1.1s1-0.4,1.5-0.4c0.7,0,1.2,0.2,1.7,0.5s0.7,0.8,0.8,1.5l-1,0.2c-0.1-0.4-0.3-0.7-0.5-0.9
		s-0.5-0.3-0.9-0.3c-0.5,0-1,0.2-1.3,0.6s-0.5,1-0.5,1.8c0,0.8,0.2,1.4,0.5,1.8s0.7,0.6,1.3,0.6c0.4,0,0.8-0.1,1-0.4
		S115.2,28.9,115.3,28.4z"/>
	<path d="M119.5,29.7l0.2,0.9c-0.3,0.1-0.6,0.1-0.8,0.1c-0.4,0-0.7-0.1-0.9-0.2s-0.4-0.3-0.4-0.5s-0.1-0.6-0.1-1.2v-3.6h-0.8v-0.8
		h0.8v-1.5l1-0.6v2.2h1.1v0.8h-1.1v3.6c0,0.3,0,0.5,0.1,0.6s0.1,0.2,0.2,0.2s0.2,0.1,0.4,0.1C119.2,29.8,119.4,29.7,119.5,29.7z"/>
	<path d="M124.8,28.6l1.1,0.1c-0.2,0.6-0.5,1.1-1,1.5s-1.1,0.5-1.8,0.5c-0.9,0-1.6-0.3-2.2-0.8s-0.8-1.3-0.8-2.4
		c0-1,0.3-1.9,0.8-2.4s1.2-0.9,2.1-0.9c0.8,0,1.5,0.3,2,0.8s0.8,1.4,0.8,2.4c0,0.1,0,0.2,0,0.3h-4.6c0,0.7,0.2,1.2,0.6,1.6
		s0.8,0.5,1.3,0.5c0.4,0,0.7-0.1,1-0.3S124.7,29.1,124.8,28.6z M121.4,26.9h3.5c0-0.5-0.2-0.9-0.4-1.2c-0.3-0.4-0.8-0.6-1.3-0.6
		c-0.5,0-0.9,0.2-1.2,0.5S121.4,26.4,121.4,26.9z"/>
	<path d="M127.2,30.7v-6.2h0.9v0.9c0.2-0.4,0.5-0.7,0.7-0.9s0.4-0.2,0.7-0.2c0.4,0,0.7,0.1,1.1,0.3l-0.4,1c-0.3-0.2-0.5-0.2-0.8-0.2
		c-0.2,0-0.4,0.1-0.6,0.2s-0.3,0.3-0.4,0.6c-0.1,0.4-0.2,0.8-0.2,1.2v3.3H127.2z"/>
	<path d="M131.5,25.6v-1.2h1.2v1.2H131.5z M131.5,30.7v-1.2h1.2v1.2H131.5z"/>
	<path d="M136.9,33v-0.8h7V33H136.9z"/>
	<path d="M143.6,33v-0.8h7V33H143.6z"/>
	<path d="M150.3,33v-0.8h7V33H150.3z"/>
	<path d="M157,33v-0.8h7V33H157z"/>
	<path d="M163.6,33v-0.8h7V33H163.6z"/>
	<path d="M170.3,33v-0.8h7V33H170.3z"/>
	<path d="M177,33v-0.8h7V33H177z"/>
	<path d="M183.7,33v-0.8h7V33H183.7z"/>
	<path d="M190.3,33v-0.8h7V33H190.3z"/>
	<path d="M197,33v-0.8h7V33H197z"/>
	<path d="M203.7,33v-0.8h7V33H203.7z"/>
	<path d="M210.4,33v-0.8h7V33H210.4z"/>
	<path d="M217,33v-0.8h7V33H217z"/>
	<path d="M223.7,33v-0.8h7V33H223.7z"/>
	<path d="M230.4,33v-0.8h7V33H230.4z"/>
	<path d="M237,33v-0.8h7V33H237z"/>
	<path d="M284.5,27.9l1.1-0.1c0.1,0.4,0.2,0.8,0.4,1.1s0.5,0.5,0.9,0.7s0.8,0.3,1.3,0.3c0.4,0,0.8-0.1,1.1-0.2s0.6-0.3,0.7-0.5
		s0.2-0.5,0.2-0.7c0-0.3-0.1-0.5-0.2-0.7s-0.4-0.4-0.8-0.5c-0.2-0.1-0.7-0.2-1.5-0.4s-1.3-0.4-1.7-0.5c-0.4-0.2-0.7-0.5-0.9-0.8
		s-0.3-0.7-0.3-1.1c0-0.4,0.1-0.8,0.4-1.2s0.6-0.7,1.1-0.9s1-0.3,1.6-0.3c0.6,0,1.2,0.1,1.7,0.3s0.9,0.5,1.1,0.9s0.4,0.8,0.4,1.4
		l-1.1,0.1c-0.1-0.5-0.3-1-0.6-1.2s-0.8-0.4-1.5-0.4c-0.7,0-1.2,0.1-1.5,0.4s-0.5,0.6-0.5,0.9c0,0.3,0.1,0.6,0.3,0.8
		c0.2,0.2,0.8,0.4,1.7,0.6s1.6,0.4,1.9,0.5c0.5,0.2,0.9,0.5,1.1,0.9s0.4,0.8,0.4,1.2c0,0.5-0.1,0.9-0.4,1.3s-0.6,0.7-1.1,0.9
		s-1,0.3-1.7,0.3c-0.8,0-1.4-0.1-2-0.3s-0.9-0.6-1.2-1S284.5,28.5,284.5,27.9z"/>
	<path d="M297,28.6l1.1,0.1c-0.2,0.6-0.5,1.1-1,1.5s-1.1,0.5-1.8,0.5c-0.9,0-1.6-0.3-2.2-0.8s-0.8-1.3-0.8-2.4c0-1,0.3-1.9,0.8-2.4
		s1.2-0.9,2.1-0.9c0.8,0,1.5,0.3,2,0.8s0.8,1.4,0.8,2.4c0,0.1,0,0.2,0,0.3h-4.6c0,0.7,0.2,1.2,0.6,1.6s0.8,0.5,1.3,0.5
		c0.4,0,0.7-0.1,1-0.3S296.8,29.1,297,28.6z M293.5,26.9h3.5c0-0.5-0.2-0.9-0.4-1.2c-0.3-0.4-0.8-0.6-1.3-0.6
		c-0.5,0-0.9,0.2-1.2,0.5S293.5,26.4,293.5,26.9z"/>
	<path d="M303.4,28.4l1,0.1c-0.1,0.7-0.4,1.3-0.9,1.7s-1,0.6-1.7,0.6c-0.9,0-1.5-0.3-2.1-0.8s-0.8-1.4-0.8-2.4
		c0-0.7,0.1-1.3,0.3-1.8s0.6-0.9,1-1.1s1-0.4,1.5-0.4c0.7,0,1.2,0.2,1.7,0.5s0.7,0.8,0.8,1.5l-1,0.2c-0.1-0.4-0.3-0.7-0.5-0.9
		s-0.5-0.3-0.9-0.3c-0.5,0-1,0.2-1.3,0.6s-0.5,1-0.5,1.8c0,0.8,0.2,1.4,0.5,1.8s0.7,0.6,1.3,0.6c0.4,0,0.8-0.1,1-0.4
		S303.4,28.9,303.4,28.4z"/>
	<path d="M305,27.5c0-1.2,0.3-2,1-2.6c0.5-0.5,1.2-0.7,2-0.7c0.9,0,1.6,0.3,2.1,0.8s0.8,1.3,0.8,2.3c0,0.8-0.1,1.4-0.4,1.9
		s-0.6,0.8-1,1.1s-1,0.4-1.5,0.4c-0.9,0-1.6-0.3-2.1-0.8S305,28.6,305,27.5z M306.1,27.5c0,0.8,0.2,1.4,0.5,1.8s0.8,0.6,1.3,0.6
		c0.5,0,1-0.2,1.3-0.6s0.5-1,0.5-1.8c0-0.8-0.2-1.4-0.5-1.7s-0.8-0.6-1.3-0.6c-0.5,0-1,0.2-1.3,0.6S306.1,26.7,306.1,27.5z"/>
	<path d="M312.1,30.7v-6.2h0.9v0.9c0.5-0.7,1.1-1,2-1c0.4,0,0.7,0.1,1,0.2s0.5,0.3,0.7,0.5s0.3,0.5,0.3,0.8c0,0.2,0.1,0.5,0.1,1v3.8
		h-1.1v-3.8c0-0.4,0-0.8-0.1-1s-0.2-0.4-0.4-0.5s-0.5-0.2-0.7-0.2c-0.4,0-0.8,0.1-1.2,0.4s-0.5,0.8-0.5,1.6v3.4H312.1z"/>
	<path d="M322.8,30.7v-0.8c-0.4,0.6-1,0.9-1.7,0.9c-0.5,0-1-0.1-1.4-0.4s-0.7-0.7-1-1.1s-0.3-1.1-0.3-1.7c0-0.6,0.1-1.2,0.3-1.7
		s0.5-0.9,0.9-1.2s0.9-0.4,1.4-0.4c0.4,0,0.7,0.1,1,0.2s0.5,0.4,0.7,0.6v-3.1h1v8.6H322.8z M319.4,27.5c0,0.8,0.2,1.4,0.5,1.8
		s0.7,0.6,1.2,0.6c0.5,0,0.9-0.2,1.2-0.6s0.5-1,0.5-1.7c0-0.9-0.2-1.5-0.5-1.9s-0.7-0.6-1.2-0.6c-0.5,0-0.9,0.2-1.2,0.6
		S319.4,26.7,319.4,27.5z"/>
	<path d="M332.8,28.4l1,0.1c-0.1,0.7-0.4,1.3-0.9,1.7s-1,0.6-1.7,0.6c-0.9,0-1.5-0.3-2.1-0.8s-0.8-1.4-0.8-2.4
		c0-0.7,0.1-1.3,0.3-1.8s0.6-0.9,1-1.1s1-0.4,1.5-0.4c0.7,0,1.2,0.2,1.7,0.5s0.7,0.8,0.8,1.5l-1,0.2c-0.1-0.4-0.3-0.7-0.5-0.9
		s-0.5-0.3-0.9-0.3c-0.5,0-1,0.2-1.3,0.6s-0.5,1-0.5,1.8c0,0.8,0.2,1.4,0.5,1.8s0.7,0.6,1.3,0.6c0.4,0,0.8-0.1,1-0.4
		S332.7,28.9,332.8,28.4z"/>
	<path d="M334.7,30.7v-8.6h1.1v3.1c0.5-0.6,1.1-0.9,1.9-0.9c0.5,0,0.9,0.1,1.2,0.3s0.6,0.4,0.7,0.8s0.2,0.8,0.2,1.4v3.9h-1.1v-3.9
		c0-0.5-0.1-0.9-0.3-1.2s-0.6-0.4-1-0.4c-0.3,0-0.6,0.1-0.9,0.2s-0.5,0.4-0.6,0.7s-0.2,0.7-0.2,1.1v3.4H334.7z"/>
	<path d="M345.5,29.9c-0.4,0.3-0.8,0.6-1.1,0.7s-0.7,0.2-1.2,0.2c-0.7,0-1.2-0.2-1.6-0.5s-0.6-0.8-0.6-1.3c0-0.3,0.1-0.6,0.2-0.8
		s0.3-0.5,0.5-0.6s0.5-0.3,0.8-0.3c0.2-0.1,0.5-0.1,0.9-0.2c0.9-0.1,1.5-0.2,1.9-0.4c0-0.1,0-0.2,0-0.3c0-0.4-0.1-0.7-0.3-0.9
		c-0.3-0.2-0.7-0.4-1.2-0.4c-0.5,0-0.9,0.1-1.1,0.3s-0.4,0.5-0.5,0.9l-1-0.1c0.1-0.4,0.2-0.8,0.5-1.1s0.5-0.5,0.9-0.6
		s0.9-0.2,1.4-0.2c0.5,0,1,0.1,1.3,0.2s0.6,0.3,0.7,0.5s0.3,0.4,0.3,0.7c0,0.2,0.1,0.5,0.1,1V28c0,1,0,1.6,0.1,1.9s0.1,0.5,0.3,0.7
		h-1.1C345.6,30.4,345.5,30.2,345.5,29.9z M345.4,27.5c-0.4,0.2-1,0.3-1.7,0.4c-0.4,0.1-0.7,0.1-0.9,0.2s-0.3,0.2-0.4,0.3
		s-0.1,0.3-0.1,0.5c0,0.3,0.1,0.5,0.3,0.7s0.5,0.3,0.9,0.3c0.4,0,0.8-0.1,1.1-0.3s0.5-0.4,0.7-0.7c0.1-0.2,0.2-0.6,0.2-1.1V27.5z"/>
	<path d="M348.1,30.7v-6.2h0.9v0.9c0.2-0.4,0.5-0.7,0.7-0.9s0.4-0.2,0.7-0.2c0.4,0,0.7,0.1,1.1,0.3l-0.4,1c-0.3-0.2-0.5-0.2-0.8-0.2
		c-0.2,0-0.4,0.1-0.6,0.2s-0.3,0.3-0.4,0.6c-0.1,0.4-0.2,0.8-0.2,1.2v3.3H348.1z"/>
	<path d="M356.1,29.9c-0.4,0.3-0.8,0.6-1.1,0.7s-0.7,0.2-1.2,0.2c-0.7,0-1.2-0.2-1.6-0.5s-0.6-0.8-0.6-1.3c0-0.3,0.1-0.6,0.2-0.8
		s0.3-0.5,0.5-0.6s0.5-0.3,0.8-0.3c0.2-0.1,0.5-0.1,0.9-0.2c0.9-0.1,1.5-0.2,1.9-0.4c0-0.1,0-0.2,0-0.3c0-0.4-0.1-0.7-0.3-0.9
		c-0.3-0.2-0.7-0.4-1.2-0.4c-0.5,0-0.9,0.1-1.1,0.3s-0.4,0.5-0.5,0.9l-1-0.1c0.1-0.4,0.2-0.8,0.5-1.1s0.5-0.5,0.9-0.6
		s0.9-0.2,1.4-0.2c0.5,0,1,0.1,1.3,0.2s0.6,0.3,0.7,0.5s0.3,0.4,0.3,0.7c0,0.2,0.1,0.5,0.1,1V28c0,1,0,1.6,0.1,1.9s0.1,0.5,0.3,0.7
		h-1.1C356.2,30.4,356.2,30.2,356.1,29.9z M356.1,27.5c-0.4,0.2-1,0.3-1.7,0.4c-0.4,0.1-0.7,0.1-0.9,0.2s-0.3,0.2-0.4,0.3
		s-0.1,0.3-0.1,0.5c0,0.3,0.1,0.5,0.3,0.7s0.5,0.3,0.9,0.3c0.4,0,0.8-0.1,1.1-0.3s0.5-0.4,0.7-0.7c0.1-0.2,0.2-0.6,0.2-1.1V27.5z"/>
	<path d="M362.8,28.4l1,0.1c-0.1,0.7-0.4,1.3-0.9,1.7s-1,0.6-1.7,0.6c-0.9,0-1.5-0.3-2.1-0.8s-0.8-1.4-0.8-2.4
		c0-0.7,0.1-1.3,0.3-1.8s0.6-0.9,1-1.1s1-0.4,1.5-0.4c0.7,0,1.2,0.2,1.7,0.5s0.7,0.8,0.8,1.5l-1,0.2c-0.1-0.4-0.3-0.7-0.5-0.9
		s-0.5-0.3-0.9-0.3c-0.5,0-1,0.2-1.3,0.6s-0.5,1-0.5,1.8c0,0.8,0.2,1.4,0.5,1.8s0.7,0.6,1.3,0.6c0.4,0,0.8-0.1,1-0.4
		S362.7,28.9,362.8,28.4z"/>
	<path d="M367.1,29.7l0.2,0.9c-0.3,0.1-0.6,0.1-0.8,0.1c-0.4,0-0.7-0.1-0.9-0.2s-0.4-0.3-0.4-0.5s-0.1-0.6-0.1-1.2v-3.6h-0.8v-0.8
		h0.8v-1.5l1-0.6v2.2h1.1v0.8H366v3.6c0,0.3,0,0.5,0.1,0.6s0.1,0.2,0.2,0.2s0.2,0.1,0.4,0.1C366.7,29.8,366.9,29.7,367.1,29.7z"/>
	<path d="M372.3,28.6l1.1,0.1c-0.2,0.6-0.5,1.1-1,1.5s-1.1,0.5-1.8,0.5c-0.9,0-1.6-0.3-2.2-0.8s-0.8-1.3-0.8-2.4
		c0-1,0.3-1.9,0.8-2.4s1.2-0.9,2.1-0.9c0.8,0,1.5,0.3,2,0.8s0.8,1.4,0.8,2.4c0,0.1,0,0.2,0,0.3h-4.6c0,0.7,0.2,1.2,0.6,1.6
		s0.8,0.5,1.3,0.5c0.4,0,0.7-0.1,1-0.3S372.2,29.1,372.3,28.6z M368.9,26.9h3.5c0-0.5-0.2-0.9-0.4-1.2c-0.3-0.4-0.8-0.6-1.3-0.6
		c-0.5,0-0.9,0.2-1.2,0.5S368.9,26.4,368.9,26.9z"/>
	<path d="M374.7,30.7v-6.2h0.9v0.9c0.2-0.4,0.5-0.7,0.7-0.9s0.4-0.2,0.7-0.2c0.4,0,0.7,0.1,1.1,0.3l-0.4,1c-0.3-0.2-0.5-0.2-0.8-0.2
		c-0.2,0-0.4,0.1-0.6,0.2s-0.3,0.3-0.4,0.6c-0.1,0.4-0.2,0.8-0.2,1.2v3.3H374.7z"/>
	<path d="M379,25.6v-1.2h1.2v1.2H379z M379,30.7v-1.2h1.2v1.2H379z"/>
	<path d="M384.5,33v-0.8h7V33H384.5z"/>
	<path d="M391.1,33v-0.8h7V33H391.1z"/>
	<path d="M397.8,33v-0.8h7V33H397.8z"/>
	<path d="M404.5,33v-0.8h7V33H404.5z"/>
	<path d="M411.1,33v-0.8h7V33H411.1z"/>
	<path d="M417.8,33v-0.8h7V33H417.8z"/>
	<path d="M424.5,33v-0.8h7V33H424.5z"/>
	<path d="M431.2,33v-0.8h7V33H431.2z"/>
	<path d="M437.8,33v-0.8h7V33H437.8z"/>
	<path d="M444.5,33v-0.8h7V33H444.5z"/>
	<path d="M451.2,33v-0.8h7V33H451.2z"/>
	<path d="M457.9,33v-0.8h7V33H457.9z"/>
	<path d="M464.5,33v-0.8h7V33H464.5z"/>
	<path d="M471.2,33v-0.8h7V33H471.2z"/>
	<path d="M477.9,33v-0.8h7V33H477.9z"/>
	<path d="M484.6,33v-0.8h7V33H484.6z"/>
</g>
<rect x="161" y="37" class="st2" width="41.1" height="14.3"/>
<g class="st3">
	<path d="M163.8,48.1c-0.6-0.7-1.1-1.6-1.5-2.6s-0.6-2-0.6-3.1c0-0.9,0.2-1.8,0.5-2.7c0.4-1,0.9-2,1.6-3h0.8
		c-0.5,0.8-0.8,1.4-0.9,1.7c-0.2,0.5-0.4,1.1-0.6,1.7c-0.2,0.7-0.3,1.5-0.3,2.2c0,1.9,0.6,3.8,1.8,5.6H163.8z"/>
	<path d="M165.8,45.6v-6.2h0.9v0.9c0.5-0.7,1.1-1,2-1c0.4,0,0.7,0.1,1,0.2s0.5,0.3,0.7,0.5s0.3,0.5,0.3,0.8c0,0.2,0.1,0.5,0.1,1v3.8
		h-1.1v-3.8c0-0.4,0-0.8-0.1-1s-0.2-0.4-0.4-0.5s-0.5-0.2-0.7-0.2c-0.4,0-0.8,0.1-1.2,0.4s-0.5,0.8-0.5,1.6v3.4H165.8z"/>
	<path d="M176.5,44.8c-0.4,0.3-0.8,0.6-1.1,0.7s-0.7,0.2-1.2,0.2c-0.7,0-1.2-0.2-1.6-0.5s-0.6-0.8-0.6-1.3c0-0.3,0.1-0.6,0.2-0.8
		s0.3-0.5,0.5-0.6s0.5-0.3,0.8-0.3c0.2-0.1,0.5-0.1,0.9-0.2c0.9-0.1,1.5-0.2,1.9-0.4c0-0.1,0-0.2,0-0.3c0-0.4-0.1-0.7-0.3-0.9
		c-0.3-0.2-0.7-0.4-1.2-0.4c-0.5,0-0.9,0.1-1.1,0.3s-0.4,0.5-0.5,0.9l-1-0.1c0.1-0.4,0.2-0.8,0.5-1.1s0.5-0.5,0.9-0.6
		s0.9-0.2,1.4-0.2c0.5,0,1,0.1,1.3,0.2s0.6,0.3,0.7,0.5s0.3,0.4,0.3,0.7c0,0.2,0.1,0.5,0.1,1V43c0,1,0,1.6,0.1,1.9s0.1,0.5,0.3,0.7
		h-1.1C176.6,45.4,176.6,45.1,176.5,44.8z M176.5,42.5c-0.4,0.2-1,0.3-1.7,0.4c-0.4,0.1-0.7,0.1-0.9,0.2s-0.3,0.2-0.4,0.3
		s-0.1,0.3-0.1,0.5c0,0.3,0.1,0.5,0.3,0.7s0.5,0.3,0.9,0.3c0.4,0,0.8-0.1,1.1-0.3s0.5-0.4,0.7-0.7c0.1-0.2,0.2-0.6,0.2-1.1V42.5z"/>
	<path d="M179.2,45.6v-6.2h0.9v0.9c0.2-0.3,0.5-0.5,0.8-0.7s0.7-0.3,1.1-0.3c0.5,0,0.8,0.1,1.1,0.3s0.5,0.5,0.6,0.8
		c0.5-0.7,1.1-1.1,1.9-1.1c0.6,0,1.1,0.2,1.4,0.5s0.5,0.9,0.5,1.6v4.3h-1v-3.9c0-0.4,0-0.7-0.1-0.9s-0.2-0.3-0.4-0.4
		s-0.4-0.2-0.6-0.2c-0.4,0-0.8,0.1-1.1,0.4s-0.4,0.8-0.4,1.4v3.6h-1.1v-4c0-0.5-0.1-0.8-0.3-1.1s-0.5-0.4-0.8-0.4
		c-0.3,0-0.6,0.1-0.8,0.2s-0.4,0.4-0.5,0.7s-0.2,0.7-0.2,1.3v3.2H179.2z"/>
	<path d="M193.4,43.6l1.1,0.1c-0.2,0.6-0.5,1.1-1,1.5s-1.1,0.5-1.8,0.5c-0.9,0-1.6-0.3-2.2-0.8s-0.8-1.3-0.8-2.4
		c0-1,0.3-1.9,0.8-2.4s1.2-0.9,2.1-0.9c0.8,0,1.5,0.3,2,0.8s0.8,1.4,0.8,2.4c0,0.1,0,0.2,0,0.3h-4.6c0,0.7,0.2,1.2,0.6,1.6
		s0.8,0.5,1.3,0.5c0.4,0,0.7-0.1,1-0.3S193.3,44.1,193.4,43.6z M190,41.9h3.5c0-0.5-0.2-0.9-0.4-1.2c-0.3-0.4-0.8-0.6-1.3-0.6
		c-0.5,0-0.9,0.2-1.2,0.5S190,41.4,190,41.9z"/>
	<path d="M196.5,48.1h-0.8c1.2-1.9,1.8-3.8,1.8-5.6c0-0.7-0.1-1.5-0.3-2.2c-0.1-0.6-0.3-1.1-0.6-1.7c-0.2-0.4-0.5-0.9-0.9-1.8h0.8
		c0.7,1,1.3,2,1.6,3c0.3,0.9,0.5,1.7,0.5,2.7c0,1.1-0.2,2.1-0.6,3.1S197.1,47.4,196.5,48.1z"/>
</g>
<rect x="420.3" y="37" class="st2" width="41.1" height="14.3"/>
<g class="st3">
	<path d="M423.1,48.1c-0.6-0.7-1.1-1.6-1.5-2.6s-0.6-2-0.6-3.1c0-0.9,0.2-1.8,0.5-2.7c0.4-1,0.9-2,1.6-3h0.8
		c-0.5,0.8-0.8,1.4-0.9,1.7c-0.2,0.5-0.4,1.1-0.6,1.7c-0.2,0.7-0.3,1.5-0.3,2.2c0,1.9,0.6,3.8,1.8,5.6H423.1z"/>
	<path d="M425.1,45.6v-6.2h0.9v0.9c0.5-0.7,1.1-1,2-1c0.4,0,0.7,0.1,1,0.2s0.5,0.3,0.7,0.5s0.3,0.5,0.3,0.8c0,0.2,0.1,0.5,0.1,1v3.8
		h-1.1v-3.8c0-0.4,0-0.8-0.1-1s-0.2-0.4-0.4-0.5s-0.5-0.2-0.7-0.2c-0.4,0-0.8,0.1-1.2,0.4s-0.5,0.8-0.5,1.6v3.4H425.1z"/>
	<path d="M435.8,44.8c-0.4,0.3-0.8,0.6-1.1,0.7s-0.8,0.2-1.2,0.2c-0.7,0-1.2-0.2-1.6-0.5s-0.6-0.8-0.6-1.3c0-0.3,0.1-0.6,0.2-0.8
		s0.3-0.5,0.5-0.6s0.5-0.3,0.8-0.3c0.2-0.1,0.5-0.1,0.9-0.2c0.9-0.1,1.5-0.2,1.9-0.4c0-0.1,0-0.2,0-0.3c0-0.4-0.1-0.7-0.3-0.9
		c-0.3-0.2-0.7-0.4-1.2-0.4c-0.5,0-0.9,0.1-1.1,0.3s-0.4,0.5-0.5,0.9l-1-0.1c0.1-0.4,0.2-0.8,0.5-1.1s0.5-0.5,0.9-0.6
		s0.9-0.2,1.4-0.2c0.5,0,1,0.1,1.3,0.2s0.6,0.3,0.7,0.5s0.3,0.4,0.3,0.7c0,0.2,0.1,0.5,0.1,1V43c0,1,0,1.6,0.1,1.9s0.1,0.5,0.3,0.7
		H436C435.9,45.4,435.8,45.1,435.8,44.8z M435.7,42.5c-0.4,0.2-1,0.3-1.7,0.4c-0.4,0.1-0.7,0.1-0.9,0.2s-0.3,0.2-0.4,0.3
		s-0.1,0.3-0.1,0.5c0,0.3,0.1,0.5,0.3,0.7s0.5,0.3,0.9,0.3c0.4,0,0.8-0.1,1.1-0.3s0.5-0.4,0.7-0.7c0.1-0.2,0.2-0.6,0.2-1.1V42.5z"/>
	<path d="M438.4,45.6v-6.2h0.9v0.9c0.2-0.3,0.5-0.5,0.8-0.7s0.7-0.3,1.1-0.3c0.5,0,0.8,0.1,1.1,0.3s0.5,0.5,0.6,0.8
		c0.5-0.7,1.1-1.1,1.9-1.1c0.6,0,1.1,0.2,1.4,0.5s0.5,0.9,0.5,1.6v4.3h-1v-3.9c0-0.4,0-0.7-0.1-0.9s-0.2-0.3-0.4-0.4
		s-0.4-0.2-0.6-0.2c-0.4,0-0.8,0.1-1.1,0.4s-0.4,0.8-0.4,1.4v3.6h-1.1v-4c0-0.5-0.1-0.8-0.3-1.1s-0.5-0.4-0.8-0.4
		c-0.3,0-0.6,0.1-0.8,0.2s-0.4,0.4-0.5,0.7s-0.2,0.7-0.2,1.3v3.2H438.4z"/>
	<path d="M452.7,43.6l1.1,0.1c-0.2,0.6-0.5,1.1-1,1.5s-1.1,0.5-1.8,0.5c-0.9,0-1.6-0.3-2.2-0.8s-0.8-1.3-0.8-2.4
		c0-1,0.3-1.9,0.8-2.4s1.2-0.9,2.1-0.9c0.8,0,1.5,0.3,2,0.8s0.8,1.4,0.8,2.4c0,0.1,0,0.2,0,0.3h-4.6c0,0.7,0.2,1.2,0.6,1.6
		s0.8,0.5,1.3,0.5c0.4,0,0.7-0.1,1-0.3S452.5,44.1,452.7,43.6z M449.2,41.9h3.5c0-0.5-0.2-0.9-0.4-1.2c-0.3-0.4-0.8-0.6-1.3-0.6
		c-0.5,0-0.9,0.2-1.2,0.5S449.2,41.4,449.2,41.9z"/>
	<path d="M455.8,48.1H455c1.2-1.9,1.8-3.8,1.8-5.6c0-0.7-0.1-1.5-0.3-2.2c-0.1-0.6-0.3-1.1-0.6-1.7c-0.2-0.4-0.5-0.9-0.9-1.8h0.8
		c0.7,1,1.3,2,1.6,3c0.3,0.9,0.5,1.7,0.5,2.7c0,1.1-0.2,2.1-0.6,3.1S456.3,47.4,455.8,48.1z"/>
</g>
<g>
	<path d="M117.4,147.5c0-0.9-0.1-2.1-0.1-3.1h0c-0.2,0.9-0.5,1.9-0.9,2.8l-1.1,3.2h-1l-1-3.1c-0.3-0.9-0.5-1.9-0.7-2.8h0
		c0,1-0.1,2.1-0.1,3.1l-0.2,2.9H111l0.5-7.3h1.8l1,2.9c0.3,0.9,0.5,1.7,0.7,2.5h0c0.2-0.8,0.4-1.7,0.7-2.5l1-2.9h1.7l0.4,7.3h-1.3
		L117.4,147.5z"/>
	<path d="M123.2,150.5l-0.1-0.6h0c-0.3,0.4-0.9,0.7-1.6,0.7c-1.1,0-1.7-0.8-1.7-1.6c0-1.3,1.2-2,3.1-2V147c0-0.3-0.1-0.9-1.1-0.9
		c-0.5,0-1.1,0.2-1.4,0.4l-0.3-0.9c0.4-0.2,1.1-0.5,1.9-0.5c1.7,0,2.2,1.1,2.2,2.2v1.9c0,0.5,0,0.9,0.1,1.3H123.2z M123,147.9
		c-0.9,0-1.8,0.2-1.8,1c0,0.5,0.3,0.8,0.8,0.8c0.5,0,0.9-0.3,1-0.7c0-0.1,0-0.2,0-0.3V147.9z"/>
	<path d="M127.1,143.8c0,0.4-0.3,0.7-0.8,0.7c-0.4,0-0.7-0.3-0.7-0.7c0-0.4,0.3-0.7,0.7-0.7C126.8,143,127.1,143.3,127.1,143.8z
		 M125.7,150.5v-5.3h1.3v5.3H125.7z"/>
	<path d="M128.5,146.8c0-0.6,0-1.1,0-1.6h1.2l0.1,0.8h0c0.2-0.4,0.8-0.9,1.7-0.9c0.9,0,1.9,0.6,1.9,2.3v3.1h-1.3v-3
		c0-0.8-0.3-1.3-1-1.3c-0.5,0-0.9,0.4-1,0.8c0,0.1-0.1,0.3-0.1,0.4v3.1h-1.3V146.8z"/>
	<path d="M142.2,150.3c-0.3,0.2-1,0.3-1.9,0.3c-2.3,0-3.7-1.5-3.7-3.7c0-2.4,1.7-3.9,3.9-3.9c0.9,0,1.5,0.2,1.8,0.3l-0.3,1.1
		c-0.3-0.2-0.8-0.3-1.4-0.3c-1.5,0-2.6,0.9-2.6,2.7c0,1.6,0.9,2.6,2.5,2.6c0.5,0,1.1-0.1,1.5-0.3L142.2,150.3z"/>
	<path d="M143.3,142.8h1.3v3.1h0c0.2-0.2,0.4-0.5,0.7-0.6c0.3-0.2,0.6-0.2,0.9-0.2c0.9,0,1.8,0.6,1.8,2.3v3.1h-1.3v-3
		c0-0.8-0.3-1.3-1-1.3c-0.5,0-0.9,0.3-1,0.7c0,0.1-0.1,0.2-0.1,0.4v3.2h-1.3V142.8z"/>
	<path d="M152.4,150.5l-0.1-0.6h0c-0.3,0.4-0.9,0.7-1.6,0.7c-1.1,0-1.7-0.8-1.7-1.6c0-1.3,1.2-2,3.1-2V147c0-0.3-0.1-0.9-1.1-0.9
		c-0.5,0-1.1,0.2-1.4,0.4l-0.3-0.9c0.4-0.2,1.1-0.5,1.9-0.5c1.7,0,2.2,1.1,2.2,2.2v1.9c0,0.5,0,0.9,0.1,1.3H152.4z M152.3,147.9
		c-0.9,0-1.8,0.2-1.8,1c0,0.5,0.3,0.8,0.8,0.8c0.5,0,0.9-0.3,1-0.7c0-0.1,0-0.2,0-0.3V147.9z"/>
	<path d="M155,146.9c0-0.7,0-1.2,0-1.7h1.2l0,1h0c0.3-0.7,0.9-1.1,1.4-1.1c0.1,0,0.2,0,0.3,0v1.3c-0.1,0-0.2,0-0.4,0
		c-0.6,0-1.1,0.4-1.2,1c0,0.1,0,0.3,0,0.4v2.7H155V146.9z"/>
	<path d="M161.7,150.5l-0.1-0.6h0c-0.3,0.4-0.9,0.7-1.6,0.7c-1.1,0-1.7-0.8-1.7-1.6c0-1.3,1.2-2,3.1-2V147c0-0.3-0.1-0.9-1.1-0.9
		c-0.5,0-1.1,0.2-1.4,0.4l-0.3-0.9c0.4-0.2,1.1-0.5,1.9-0.5c1.7,0,2.2,1.1,2.2,2.2v1.9c0,0.5,0,0.9,0.1,1.3H161.7z M161.6,147.9
		c-0.9,0-1.8,0.2-1.8,1c0,0.5,0.3,0.8,0.8,0.8c0.5,0,0.9-0.3,1-0.7c0-0.1,0-0.2,0-0.3V147.9z"/>
	<path d="M168.1,150.4c-0.3,0.1-0.8,0.3-1.5,0.3c-1.6,0-2.7-1.1-2.7-2.7c0-1.6,1.1-2.8,2.9-2.8c0.5,0,1,0.1,1.3,0.2l-0.2,1
		c-0.2-0.1-0.5-0.2-1-0.2c-1,0-1.6,0.7-1.6,1.7c0,1.1,0.7,1.7,1.6,1.7c0.5,0,0.8-0.1,1.1-0.2L168.1,150.4z"/>
	<path d="M170.8,143.7v1.5h1.3v1h-1.3v2.3c0,0.6,0.2,1,0.7,1c0.2,0,0.4,0,0.5-0.1l0,1c-0.2,0.1-0.5,0.1-1,0.1
		c-0.5,0-0.9-0.2-1.2-0.4c-0.3-0.3-0.4-0.8-0.4-1.5v-2.5h-0.8v-1h0.8V144L170.8,143.7z"/>
	<path d="M174,148.2c0,1,0.8,1.4,1.6,1.4c0.6,0,1.1-0.1,1.5-0.2l0.2,0.9c-0.5,0.2-1.1,0.3-1.8,0.3c-1.7,0-2.7-1.1-2.7-2.7
		c0-1.5,0.9-2.8,2.6-2.8c1.7,0,2.3,1.4,2.3,2.6c0,0.2,0,0.4,0,0.6H174z M176.3,147.3c0-0.5-0.2-1.3-1.1-1.3c-0.8,0-1.2,0.7-1.2,1.3
		H176.3z"/>
	<path d="M178.6,146.9c0-0.7,0-1.2,0-1.7h1.2l0,1h0c0.3-0.7,0.9-1.1,1.4-1.1c0.1,0,0.2,0,0.3,0v1.3c-0.1,0-0.2,0-0.4,0
		c-0.6,0-1.1,0.4-1.2,1c0,0.1,0,0.3,0,0.4v2.7h-1.3V146.9z"/>
	<path d="M187,143c-0.7,1-1.2,2.5-1.2,4.4c0,1.9,0.5,3.3,1.2,4.4h-1c-0.6-0.9-1.3-2.3-1.3-4.4c0-2.1,0.7-3.5,1.3-4.4H187z"/>
	<path d="M188,146.8c0-0.6,0-1.1,0-1.6h1.2l0.1,0.8h0c0.2-0.4,0.8-0.9,1.7-0.9c0.9,0,1.9,0.6,1.9,2.3v3.1h-1.3v-3
		c0-0.8-0.3-1.3-1-1.3c-0.5,0-0.9,0.4-1,0.8c0,0.1-0.1,0.3-0.1,0.4v3.1H188V146.8z"/>
	<path d="M197.2,150.5l-0.1-0.6h0c-0.3,0.4-0.9,0.7-1.6,0.7c-1.1,0-1.7-0.8-1.7-1.6c0-1.3,1.2-2,3.1-2V147c0-0.3-0.1-0.9-1.1-0.9
		c-0.5,0-1.1,0.2-1.4,0.4l-0.3-0.9c0.4-0.2,1.1-0.5,1.9-0.5c1.7,0,2.2,1.1,2.2,2.2v1.9c0,0.5,0,0.9,0.1,1.3H197.2z M197,147.9
		c-0.9,0-1.8,0.2-1.8,1c0,0.5,0.3,0.8,0.8,0.8c0.5,0,0.9-0.3,1-0.7c0-0.1,0-0.2,0-0.3V147.9z"/>
	<path d="M199.7,146.8c0-0.6,0-1.1,0-1.6h1.1l0.1,0.8h0c0.3-0.4,0.7-0.9,1.6-0.9c0.7,0,1.2,0.4,1.5,1h0c0.2-0.3,0.4-0.5,0.7-0.7
		c0.3-0.2,0.6-0.3,1.1-0.3c0.9,0,1.8,0.6,1.8,2.3v3.1h-1.3v-2.9c0-0.9-0.3-1.4-0.9-1.4c-0.5,0-0.8,0.3-0.9,0.7
		c0,0.1-0.1,0.3-0.1,0.4v3.2H203v-3.1c0-0.7-0.3-1.3-0.9-1.3c-0.5,0-0.8,0.4-1,0.8c-0.1,0.1-0.1,0.3-0.1,0.4v3.1h-1.3V146.8z"/>
	<path d="M209.9,148.2c0,1,0.8,1.4,1.6,1.4c0.6,0,1.1-0.1,1.5-0.2l0.2,0.9c-0.5,0.2-1.1,0.3-1.8,0.3c-1.7,0-2.7-1.1-2.7-2.7
		c0-1.5,0.9-2.8,2.6-2.8c1.7,0,2.3,1.4,2.3,2.6c0,0.2,0,0.4,0,0.6H209.9z M212.2,147.3c0-0.5-0.2-1.3-1.1-1.3
		c-0.8,0-1.2,0.7-1.2,1.3H212.2z"/>
	<path d="M214.1,151.8c0.7-1,1.2-2.5,1.2-4.4s-0.5-3.4-1.2-4.4h1c0.6,0.9,1.3,2.3,1.3,4.4c0,2.1-0.7,3.5-1.3,4.4H214.1z"/>
	<path d="M135.3,167l-0.1-0.8h0c-0.3,0.5-1,0.9-1.8,0.9c-1.2,0-1.8-0.9-1.8-1.7c0-1.5,1.3-2.2,3.6-2.2V163c0-0.5-0.1-1.4-1.4-1.4
		c-0.6,0-1.1,0.2-1.6,0.4l-0.2-0.7c0.5-0.3,1.2-0.5,2-0.5c1.8,0,2.3,1.3,2.3,2.5v2.2c0,0.5,0,1,0.1,1.4H135.3z M135.2,163.9
		c-1.2,0-2.5,0.2-2.5,1.4c0,0.7,0.5,1,1,1c0.8,0,1.3-0.5,1.5-1c0-0.1,0.1-0.2,0.1-0.3V163.9z"/>
	<path d="M143.2,158.2v7.3c0,0.5,0,1.1,0,1.6h-1l0-1h0c-0.3,0.7-1.1,1.2-2,1.2c-1.5,0-2.6-1.2-2.6-3.1c0-2,1.2-3.2,2.7-3.2
		c0.9,0,1.5,0.4,1.8,0.9h0v-3.6H143.2z M142.1,163.4c0-0.1,0-0.3,0-0.5c-0.2-0.7-0.8-1.3-1.6-1.3c-1.1,0-1.8,1-1.8,2.3
		c0,1.2,0.6,2.2,1.8,2.2c0.7,0,1.4-0.5,1.6-1.3c0-0.1,0-0.3,0-0.5V163.4z"/>
	<path d="M145.4,161l1.2,3.4c0.2,0.5,0.4,1,0.5,1.5h0c0.1-0.5,0.3-1,0.5-1.5l1.2-3.4h1.1l-2.4,6h-1l-2.3-6H145.4z"/>
	<path d="M151.4,164.2c0,1.5,1,2.1,2.1,2.1c0.8,0,1.3-0.1,1.7-0.3l0.2,0.8c-0.4,0.2-1,0.4-2,0.4c-1.8,0-3-1.2-3-3
		c0-1.8,1.1-3.2,2.8-3.2c2,0,2.5,1.7,2.5,2.8c0,0.2,0,0.4,0,0.5H151.4z M154.6,163.4c0-0.7-0.3-1.8-1.5-1.8c-1.1,0-1.6,1-1.7,1.8
		H154.6z"/>
	<path d="M157.1,162.6c0-0.6,0-1.1,0-1.6h1l0.1,1h0c0.3-0.6,1-1.1,2-1.1c0.8,0,2.1,0.5,2.1,2.6v3.6h-1.1v-3.5c0-1-0.4-1.8-1.4-1.8
		c-0.7,0-1.3,0.5-1.5,1.1c0,0.1-0.1,0.3-0.1,0.5v3.6h-1.1V162.6z"/>
	<path d="M165.2,159.2v1.7h1.6v0.8h-1.6v3.2c0,0.7,0.2,1.2,0.8,1.2c0.3,0,0.5,0,0.6-0.1l0,0.8c-0.2,0.1-0.5,0.1-1,0.1
		c-0.5,0-0.9-0.2-1.2-0.5c-0.3-0.3-0.4-0.9-0.4-1.6v-3.3h-0.9V161h0.9v-1.4L165.2,159.2z"/>
	<path d="M173,165.3c0,0.6,0,1.2,0,1.6h-1l-0.1-1h0c-0.3,0.5-0.9,1.1-2,1.1c-0.9,0-2.1-0.5-2.1-2.6V161h1.1v3.3
		c0,1.1,0.3,1.9,1.3,1.9c0.7,0,1.2-0.5,1.4-1c0.1-0.2,0.1-0.4,0.1-0.6V161h1.1V165.3z"/>
	<path d="M174.8,162.8c0-0.7,0-1.3,0-1.9h1l0,1.2h0c0.3-0.8,0.9-1.3,1.7-1.3c0.1,0,0.2,0,0.3,0v1c-0.1,0-0.2,0-0.4,0
		c-0.8,0-1.3,0.6-1.5,1.4c0,0.1,0,0.3,0,0.5v3.2h-1.1V162.8z"/>
	<path d="M184.2,163.9c0,2.2-1.5,3.2-3,3.2c-1.6,0-2.9-1.2-2.9-3.1c0-2,1.3-3.2,3-3.2C183,160.8,184.2,162.1,184.2,163.9z
		 M179.4,164c0,1.3,0.8,2.3,1.8,2.3c1,0,1.8-1,1.8-2.3c0-1-0.5-2.3-1.8-2.3S179.4,162.8,179.4,164z"/>
	<path d="M190.6,165.3c0,0.6,0,1.2,0,1.6h-1l-0.1-1h0c-0.3,0.5-0.9,1.1-2,1.1c-0.9,0-2.1-0.5-2.1-2.6V161h1.1v3.3
		c0,1.1,0.3,1.9,1.3,1.9c0.7,0,1.2-0.5,1.4-1c0.1-0.2,0.1-0.4,0.1-0.6V161h1.1V165.3z"/>
	<path d="M192.3,165.8c0.3,0.2,0.9,0.4,1.4,0.4c0.8,0,1.2-0.4,1.2-0.9c0-0.5-0.3-0.8-1.1-1.1c-1.1-0.4-1.6-1-1.6-1.7
		c0-1,0.8-1.8,2.1-1.8c0.6,0,1.1,0.2,1.5,0.4l-0.3,0.8c-0.2-0.1-0.7-0.3-1.2-0.3c-0.6,0-1,0.4-1,0.8c0,0.5,0.4,0.7,1.1,1
		c1,0.4,1.6,0.9,1.6,1.8c0,1.1-0.8,1.8-2.2,1.8c-0.7,0-1.3-0.2-1.7-0.4L192.3,165.8z"/>
	<path d="M148.6,183.2c-0.3,0.1-0.9,0.3-1.7,0.3c-1.8,0-3-1.2-3-3.1c0-1.8,1.3-3.2,3.2-3.2c0.6,0,1.2,0.2,1.5,0.3l-0.2,0.8
		c-0.3-0.1-0.7-0.3-1.3-0.3c-1.4,0-2.1,1-2.1,2.3c0,1.4,0.9,2.2,2.1,2.2c0.6,0,1-0.2,1.3-0.3L148.6,183.2z"/>
	<path d="M153.2,183.4l-0.1-0.8h0c-0.3,0.5-1,0.9-1.8,0.9c-1.2,0-1.8-0.9-1.8-1.7c0-1.5,1.3-2.2,3.6-2.2v-0.1c0-0.5-0.1-1.4-1.4-1.4
		c-0.6,0-1.1,0.2-1.6,0.4l-0.2-0.7c0.5-0.3,1.2-0.5,2-0.5c1.8,0,2.3,1.3,2.3,2.5v2.2c0,0.5,0,1,0.1,1.4H153.2z M153.1,180.3
		c-1.2,0-2.5,0.2-2.5,1.4c0,0.7,0.5,1,1,1c0.8,0,1.3-0.5,1.5-1c0-0.1,0.1-0.2,0.1-0.3V180.3z"/>
	<path d="M155.9,179.3c0-0.7,0-1.3,0-1.9h1l0,1.2h0c0.3-0.8,0.9-1.3,1.7-1.3c0.1,0,0.2,0,0.3,0v1c-0.1,0-0.2,0-0.4,0
		c-0.8,0-1.3,0.6-1.5,1.4c0,0.1,0,0.3,0,0.5v3.2h-1.1V179.3z"/>
	<path d="M160.4,180.6c0,1.5,1,2.1,2.1,2.1c0.8,0,1.3-0.1,1.7-0.3l0.2,0.8c-0.4,0.2-1,0.4-2,0.4c-1.8,0-3-1.2-3-3
		c0-1.8,1.1-3.2,2.8-3.2c2,0,2.5,1.7,2.5,2.8c0,0.2,0,0.4,0,0.5H160.4z M163.6,179.8c0-0.7-0.3-1.8-1.5-1.8c-1.1,0-1.6,1-1.7,1.8
		H163.6z"/>
	<path d="M166,174.6h1.1v8.8H166V174.6z"/>
	<path d="M169.6,180.6c0,1.5,1,2.1,2.1,2.1c0.8,0,1.3-0.1,1.7-0.3l0.2,0.8c-0.4,0.2-1,0.4-2,0.4c-1.8,0-3-1.2-3-3
		c0-1.8,1.1-3.2,2.8-3.2c2,0,2.5,1.7,2.5,2.8c0,0.2,0,0.4,0,0.5H169.6z M172.8,179.8c0-0.7-0.3-1.8-1.5-1.8c-1.1,0-1.6,1-1.7,1.8
		H172.8z"/>
	<path d="M175,182.3c0.3,0.2,0.9,0.4,1.4,0.4c0.8,0,1.2-0.4,1.2-0.9c0-0.5-0.3-0.8-1.1-1.1c-1.1-0.4-1.6-1-1.6-1.7
		c0-1,0.8-1.8,2.1-1.8c0.6,0,1.1,0.2,1.5,0.4l-0.3,0.8c-0.2-0.1-0.7-0.3-1.2-0.3c-0.6,0-1,0.4-1,0.8c0,0.5,0.4,0.7,1.1,1
		c1,0.4,1.6,0.9,1.6,1.8c0,1.1-0.8,1.8-2.2,1.8c-0.7,0-1.3-0.2-1.7-0.4L175,182.3z"/>
	<path d="M179.9,182.3c0.3,0.2,0.9,0.4,1.4,0.4c0.8,0,1.2-0.4,1.2-0.9c0-0.5-0.3-0.8-1.1-1.1c-1.1-0.4-1.6-1-1.6-1.7
		c0-1,0.8-1.8,2.1-1.8c0.6,0,1.1,0.2,1.5,0.4l-0.3,0.8c-0.2-0.1-0.7-0.3-1.2-0.3c-0.6,0-1,0.4-1,0.8c0,0.5,0.4,0.7,1.1,1
		c1,0.4,1.6,0.9,1.6,1.8c0,1.1-0.8,1.8-2.2,1.8c-0.7,0-1.3-0.2-1.7-0.4L179.9,182.3z"/>
	<path d="M139.3,195.7c0-0.7,0-1.3,0-1.9h1l0,1.2h0c0.3-0.8,0.9-1.3,1.7-1.3c0.1,0,0.2,0,0.3,0v1c-0.1,0-0.2,0-0.4,0
		c-0.8,0-1.3,0.6-1.5,1.4c0,0.1,0,0.3,0,0.5v3.2h-1.1V195.7z"/>
	<path d="M143.8,197c0,1.5,1,2.1,2.1,2.1c0.8,0,1.3-0.1,1.7-0.3l0.2,0.8c-0.4,0.2-1,0.4-2,0.4c-1.8,0-3-1.2-3-3
		c0-1.8,1.1-3.2,2.8-3.2c2,0,2.5,1.7,2.5,2.8c0,0.2,0,0.4,0,0.5H143.8z M147,196.3c0-0.7-0.3-1.8-1.5-1.8c-1.1,0-1.6,1-1.7,1.8H147z
		"/>
	<path d="M149.4,199.9c0-0.4,0-1,0-1.6V191h1.1v3.8h0c0.4-0.7,1.1-1.1,2-1.1c1.5,0,2.5,1.2,2.5,3.1c0,2.1-1.4,3.2-2.7,3.2
		c-0.9,0-1.6-0.3-2-1.1h0l0,1H149.4z M150.5,197.4c0,0.1,0,0.3,0,0.4c0.2,0.8,0.8,1.3,1.6,1.3c1.1,0,1.8-0.9,1.8-2.3
		c0-1.2-0.6-2.2-1.8-2.2c-0.7,0-1.4,0.5-1.7,1.3c0,0.1-0.1,0.3-0.1,0.4V197.4z"/>
	<path d="M157.1,197c0,1.5,1,2.1,2.1,2.1c0.8,0,1.3-0.1,1.7-0.3l0.2,0.8c-0.4,0.2-1,0.4-2,0.4c-1.8,0-3-1.2-3-3
		c0-1.8,1.1-3.2,2.8-3.2c2,0,2.5,1.7,2.5,2.8c0,0.2,0,0.4,0,0.5H157.1z M160.3,196.3c0-0.7-0.3-1.8-1.5-1.8c-1.1,0-1.6,1-1.7,1.8
		H160.3z"/>
	<path d="M162.7,191h1.1v8.8h-1.1V191z"/>
	<path d="M165.7,191h1.1v8.8h-1.1V191z"/>
	<path d="M169.8,192.2c0,0.4-0.3,0.7-0.7,0.7c-0.4,0-0.7-0.3-0.7-0.7c0-0.4,0.3-0.7,0.7-0.7C169.5,191.5,169.8,191.8,169.8,192.2z
		 M168.6,199.9v-6h1.1v6H168.6z"/>
	<path d="M176.9,196.8c0,2.2-1.5,3.2-3,3.2c-1.6,0-2.9-1.2-2.9-3.1c0-2,1.3-3.2,3-3.2C175.7,193.7,176.9,195,176.9,196.8z
		 M172.2,196.9c0,1.3,0.8,2.3,1.8,2.3c1,0,1.8-1,1.8-2.3c0-1-0.5-2.3-1.8-2.3S172.2,195.7,172.2,196.9z"/>
	<path d="M183.3,198.2c0,0.6,0,1.2,0,1.6h-1l-0.1-1h0c-0.3,0.5-0.9,1.1-2,1.1c-0.9,0-2.1-0.5-2.1-2.6v-3.5h1.1v3.3
		c0,1.1,0.3,1.9,1.3,1.9c0.7,0,1.2-0.5,1.4-1c0.1-0.2,0.1-0.4,0.1-0.6v-3.7h1.1V198.2z"/>
	<path d="M185,198.7c0.3,0.2,0.9,0.4,1.4,0.4c0.8,0,1.2-0.4,1.2-0.9c0-0.5-0.3-0.8-1.1-1.1c-1.1-0.4-1.6-1-1.6-1.7
		c0-1,0.8-1.8,2.1-1.8c0.6,0,1.1,0.2,1.5,0.4l-0.3,0.8c-0.2-0.1-0.7-0.3-1.2-0.3c-0.6,0-1,0.4-1,0.8c0,0.5,0.4,0.7,1.1,1
		c1,0.4,1.6,0.9,1.6,1.8c0,1.1-0.8,1.8-2.2,1.8c-0.7,0-1.3-0.2-1.7-0.4L185,198.7z"/>
	<path d="M146.2,216.3v-5.2h-0.8v-0.8h0.8V210c0-0.8,0.2-1.6,0.7-2.1c0.4-0.4,1-0.6,1.5-0.6c0.4,0,0.7,0.1,0.9,0.2l-0.1,0.8
		c-0.2-0.1-0.4-0.1-0.7-0.1c-0.9,0-1.2,0.8-1.2,1.7v0.3h1.5v0.8h-1.5v5.2H146.2z"/>
	<path d="M154.8,214.7c0,0.6,0,1.2,0,1.6h-1l-0.1-1h0c-0.3,0.5-0.9,1.1-2,1.1c-0.9,0-2.1-0.5-2.1-2.6v-3.5h1.1v3.3
		c0,1.1,0.3,1.9,1.3,1.9c0.7,0,1.2-0.5,1.4-1c0.1-0.2,0.1-0.4,0.1-0.6v-3.7h1.1V214.7z"/>
	<path d="M156.6,211.9c0-0.6,0-1.1,0-1.6h1l0.1,1h0c0.3-0.6,1-1.1,2-1.1c0.8,0,2.1,0.5,2.1,2.6v3.6h-1.1v-3.5c0-1-0.4-1.8-1.4-1.8
		c-0.7,0-1.3,0.5-1.5,1.1c0,0.1-0.1,0.3-0.1,0.5v3.6h-1.1V211.9z"/>
	<path d="M163.4,211.9c0-0.6,0-1.1,0-1.6h1l0.1,1h0c0.3-0.6,1-1.1,2-1.1c0.8,0,2.1,0.5,2.1,2.6v3.6h-1.1v-3.5c0-1-0.4-1.8-1.4-1.8
		c-0.7,0-1.3,0.5-1.5,1.1c0,0.1-0.1,0.3-0.1,0.5v3.6h-1.1V211.9z"/>
	<path d="M170.6,210.3l1.3,3.5c0.1,0.4,0.3,0.9,0.4,1.2h0c0.1-0.4,0.2-0.8,0.4-1.3l1.2-3.5h1.2l-1.6,4.3c-0.8,2.1-1.3,3.1-2.1,3.8
		c-0.5,0.5-1.1,0.7-1.3,0.7l-0.3-0.9c0.3-0.1,0.6-0.3,1-0.5c0.3-0.2,0.7-0.7,0.9-1.2c0-0.1,0.1-0.2,0.1-0.3c0-0.1,0-0.1-0.1-0.3
		l-2.2-5.5H170.6z"/>
	<path d="M175.3,215.7c0-0.5,0.3-0.8,0.7-0.8c0.4,0,0.7,0.3,0.7,0.8c0,0.4-0.3,0.8-0.7,0.8C175.6,216.4,175.3,216.1,175.3,215.7z"/>
	<path d="M177.8,215.7c0-0.5,0.3-0.8,0.7-0.8c0.4,0,0.7,0.3,0.7,0.8c0,0.4-0.3,0.8-0.7,0.8C178.1,216.4,177.8,216.1,177.8,215.7z"/>
	<path d="M180.4,215.7c0-0.5,0.3-0.8,0.7-0.8c0.4,0,0.7,0.3,0.7,0.8c0,0.4-0.3,0.8-0.7,0.8C180.7,216.4,180.4,216.1,180.4,215.7z"/>
</g>
<g>
	<path d="M332.3,149.1c0.4,0.2,1.1,0.5,1.8,0.5c0.9,0,1.3-0.4,1.3-1c0-0.6-0.4-0.9-1.3-1.2c-1.2-0.4-2-1.1-2-2.1
		c0-1.2,1-2.1,2.6-2.1c0.8,0,1.4,0.2,1.8,0.4l-0.3,1.1c-0.3-0.1-0.8-0.3-1.5-0.3c-0.8,0-1.2,0.5-1.2,0.9c0,0.6,0.4,0.8,1.4,1.2
		c1.3,0.5,1.9,1.1,1.9,2.2c0,1.2-0.9,2.2-2.8,2.2c-0.8,0-1.6-0.2-2-0.5L332.3,149.1z"/>
	<path d="M339,148.2c0,1,0.8,1.4,1.6,1.4c0.6,0,1.1-0.1,1.5-0.2l0.2,0.9c-0.5,0.2-1.1,0.3-1.8,0.3c-1.7,0-2.7-1.1-2.7-2.7
		c0-1.5,0.9-2.8,2.6-2.8c1.7,0,2.3,1.4,2.3,2.6c0,0.2,0,0.4,0,0.6H339z M341.3,147.3c0-0.5-0.2-1.3-1.1-1.3c-0.8,0-1.2,0.7-1.2,1.3
		H341.3z"/>
	<path d="M347.5,150.4c-0.3,0.1-0.8,0.3-1.5,0.3c-1.6,0-2.7-1.1-2.7-2.7c0-1.6,1.1-2.8,2.9-2.8c0.5,0,1,0.1,1.3,0.2l-0.2,1
		c-0.2-0.1-0.5-0.2-1-0.2c-1,0-1.6,0.7-1.6,1.7c0,1.1,0.7,1.7,1.6,1.7c0.5,0,0.8-0.1,1.1-0.2L347.5,150.4z"/>
	<path d="M353.4,147.8c0,1.9-1.4,2.8-2.7,2.8c-1.5,0-2.6-1-2.6-2.7c0-1.7,1.1-2.8,2.7-2.8C352.4,145.1,353.4,146.2,353.4,147.8z
		 M349.4,147.9c0,1,0.5,1.8,1.3,1.8c0.8,0,1.3-0.7,1.3-1.8c0-0.8-0.4-1.8-1.3-1.8C349.8,146.1,349.4,147,349.4,147.9z"/>
	<path d="M354.5,146.8c0-0.6,0-1.1,0-1.6h1.2l0.1,0.8h0c0.2-0.4,0.8-0.9,1.7-0.9c0.9,0,1.9,0.6,1.9,2.3v3.1H358v-3
		c0-0.8-0.3-1.3-1-1.3c-0.5,0-0.9,0.4-1,0.8c0,0.1-0.1,0.3-0.1,0.4v3.1h-1.3V146.8z"/>
	<path d="M365.6,142.8v6.2c0,0.5,0,1.1,0,1.5h-1.2l-0.1-0.8h0c-0.3,0.6-1,1-1.7,1c-1.3,0-2.3-1.1-2.3-2.7c0-1.8,1.1-2.8,2.4-2.8
		c0.7,0,1.2,0.3,1.5,0.7h0v-3H365.6z M364.3,147.4c0-0.1,0-0.2,0-0.3c-0.1-0.5-0.5-0.9-1.2-0.9c-0.9,0-1.3,0.8-1.3,1.7
		c0,1,0.5,1.7,1.3,1.7c0.5,0,1-0.4,1.2-0.9c0-0.1,0-0.2,0-0.4V147.4z"/>
	<path d="M374.6,150.3c-0.3,0.2-1,0.3-1.9,0.3c-2.3,0-3.7-1.5-3.7-3.7c0-2.4,1.7-3.9,3.9-3.9c0.9,0,1.5,0.2,1.8,0.3l-0.3,1.1
		c-0.3-0.2-0.8-0.3-1.4-0.3c-1.5,0-2.6,0.9-2.6,2.7c0,1.6,0.9,2.6,2.5,2.6c0.5,0,1.1-0.1,1.5-0.3L374.6,150.3z"/>
	<path d="M375.6,142.8h1.3v3.1h0c0.2-0.2,0.4-0.5,0.7-0.6c0.3-0.2,0.6-0.2,0.9-0.2c0.9,0,1.8,0.6,1.8,2.3v3.1h-1.3v-3
		c0-0.8-0.3-1.3-1-1.3c-0.5,0-0.9,0.3-1,0.7c0,0.1-0.1,0.2-0.1,0.4v3.2h-1.3V142.8z"/>
	<path d="M384.8,150.5l-0.1-0.6h0c-0.3,0.4-0.9,0.7-1.6,0.7c-1.1,0-1.7-0.8-1.7-1.6c0-1.3,1.2-2,3.1-2V147c0-0.3-0.1-0.9-1.1-0.9
		c-0.5,0-1.1,0.2-1.4,0.4l-0.3-0.9c0.4-0.2,1.1-0.5,1.9-0.5c1.7,0,2.2,1.1,2.2,2.2v1.9c0,0.5,0,0.9,0.1,1.3H384.8z M384.6,147.9
		c-0.9,0-1.8,0.2-1.8,1c0,0.5,0.3,0.8,0.8,0.8c0.5,0,0.9-0.3,1-0.7c0-0.1,0-0.2,0-0.3V147.9z"/>
	<path d="M387.3,146.9c0-0.7,0-1.2,0-1.7h1.2l0,1h0c0.3-0.7,0.9-1.1,1.4-1.1c0.1,0,0.2,0,0.3,0v1.3c-0.1,0-0.2,0-0.4,0
		c-0.6,0-1.1,0.4-1.2,1c0,0.1,0,0.3,0,0.4v2.7h-1.3V146.9z"/>
	<path d="M394.1,150.5l-0.1-0.6h0c-0.3,0.4-0.9,0.7-1.6,0.7c-1.1,0-1.7-0.8-1.7-1.6c0-1.3,1.2-2,3.1-2V147c0-0.3-0.1-0.9-1.1-0.9
		c-0.5,0-1.1,0.2-1.4,0.4l-0.3-0.9c0.4-0.2,1.1-0.5,1.9-0.5c1.7,0,2.2,1.1,2.2,2.2v1.9c0,0.5,0,0.9,0.1,1.3H394.1z M393.9,147.9
		c-0.9,0-1.8,0.2-1.8,1c0,0.5,0.3,0.8,0.8,0.8c0.5,0,0.9-0.3,1-0.7c0-0.1,0-0.2,0-0.3V147.9z"/>
	<path d="M400.5,150.4c-0.3,0.1-0.8,0.3-1.5,0.3c-1.6,0-2.7-1.1-2.7-2.7c0-1.6,1.1-2.8,2.9-2.8c0.5,0,1,0.1,1.3,0.2l-0.2,1
		c-0.2-0.1-0.5-0.2-1-0.2c-1,0-1.6,0.7-1.6,1.7c0,1.1,0.7,1.7,1.6,1.7c0.5,0,0.8-0.1,1.1-0.2L400.5,150.4z"/>
	<path d="M403.2,143.7v1.5h1.3v1h-1.3v2.3c0,0.6,0.2,1,0.7,1c0.2,0,0.4,0,0.5-0.1l0,1c-0.2,0.1-0.5,0.1-1,0.1
		c-0.5,0-0.9-0.2-1.2-0.4c-0.3-0.3-0.4-0.8-0.4-1.5v-2.5h-0.8v-1h0.8V144L403.2,143.7z"/>
	<path d="M406.3,148.2c0,1,0.8,1.4,1.6,1.4c0.6,0,1.1-0.1,1.5-0.2l0.2,0.9c-0.5,0.2-1.1,0.3-1.8,0.3c-1.7,0-2.7-1.1-2.7-2.7
		c0-1.5,0.9-2.8,2.6-2.8c1.7,0,2.3,1.4,2.3,2.6c0,0.2,0,0.4,0,0.6H406.3z M408.7,147.3c0-0.5-0.2-1.3-1.1-1.3
		c-0.8,0-1.2,0.7-1.2,1.3H408.7z"/>
	<path d="M411,146.9c0-0.7,0-1.2,0-1.7h1.2l0,1h0c0.3-0.7,0.9-1.1,1.4-1.1c0.1,0,0.2,0,0.3,0v1.3c-0.1,0-0.2,0-0.4,0
		c-0.6,0-1.1,0.4-1.2,1c0,0.1,0,0.3,0,0.4v2.7H411V146.9z"/>
	<path d="M419.3,143c-0.7,1-1.2,2.5-1.2,4.4c0,1.9,0.5,3.3,1.2,4.4h-1c-0.6-0.9-1.3-2.3-1.3-4.4c0-2.1,0.7-3.5,1.3-4.4H419.3z"/>
	<path d="M420.4,146.8c0-0.6,0-1.1,0-1.6h1.2l0.1,0.8h0c0.2-0.4,0.8-0.9,1.7-0.9c0.9,0,1.9,0.6,1.9,2.3v3.1h-1.3v-3
		c0-0.8-0.3-1.3-1-1.3c-0.5,0-0.9,0.4-1,0.8c0,0.1-0.1,0.3-0.1,0.4v3.1h-1.3V146.8z"/>
	<path d="M429.5,150.5l-0.1-0.6h0c-0.3,0.4-0.9,0.7-1.6,0.7c-1.1,0-1.7-0.8-1.7-1.6c0-1.3,1.2-2,3.1-2V147c0-0.3-0.1-0.9-1.1-0.9
		c-0.5,0-1.1,0.2-1.4,0.4l-0.3-0.9c0.4-0.2,1.1-0.5,1.9-0.5c1.7,0,2.2,1.1,2.2,2.2v1.9c0,0.5,0,0.9,0.1,1.3H429.5z M429.4,147.9
		c-0.9,0-1.8,0.2-1.8,1c0,0.5,0.3,0.8,0.8,0.8c0.5,0,0.9-0.3,1-0.7c0-0.1,0-0.2,0-0.3V147.9z"/>
	<path d="M432.1,146.8c0-0.6,0-1.1,0-1.6h1.2l0.1,0.8h0c0.3-0.4,0.7-0.9,1.6-0.9c0.7,0,1.2,0.4,1.5,1h0c0.2-0.3,0.4-0.5,0.7-0.7
		c0.3-0.2,0.6-0.3,1.1-0.3c0.9,0,1.8,0.6,1.8,2.3v3.1h-1.3v-2.9c0-0.9-0.3-1.4-0.9-1.4c-0.5,0-0.8,0.3-0.9,0.7
		c0,0.1-0.1,0.3-0.1,0.4v3.2h-1.3v-3.1c0-0.7-0.3-1.3-0.9-1.3c-0.5,0-0.8,0.4-1,0.8c-0.1,0.1-0.1,0.3-0.1,0.4v3.1h-1.3V146.8z"/>
	<path d="M442.2,148.2c0,1,0.8,1.4,1.6,1.4c0.6,0,1.1-0.1,1.5-0.2l0.2,0.9c-0.5,0.2-1.1,0.3-1.8,0.3c-1.7,0-2.7-1.1-2.7-2.7
		c0-1.5,0.9-2.8,2.6-2.8c1.7,0,2.3,1.4,2.3,2.6c0,0.2,0,0.4,0,0.6H442.2z M444.5,147.3c0-0.5-0.2-1.3-1.1-1.3
		c-0.8,0-1.2,0.7-1.2,1.3H444.5z"/>
	<path d="M446.5,151.8c0.7-1,1.2-2.5,1.2-4.4s-0.5-3.4-1.2-4.4h1c0.6,0.9,1.3,2.3,1.3,4.4c0,2.1-0.7,3.5-1.3,4.4H446.5z"/>
	<path d="M383.3,166.7c-0.3,0.1-0.9,0.3-1.7,0.3c-1.8,0-3-1.2-3-3.1c0-1.8,1.3-3.2,3.2-3.2c0.6,0,1.2,0.2,1.5,0.3l-0.2,0.8
		c-0.3-0.1-0.7-0.3-1.3-0.3c-1.4,0-2.1,1-2.1,2.3c0,1.4,0.9,2.2,2.1,2.2c0.6,0,1-0.2,1.3-0.3L383.3,166.7z"/>
	<path d="M387.9,167l-0.1-0.8h0c-0.3,0.5-1,0.9-1.8,0.9c-1.2,0-1.8-0.9-1.8-1.7c0-1.5,1.3-2.2,3.6-2.2V163c0-0.5-0.1-1.4-1.4-1.4
		c-0.6,0-1.1,0.2-1.6,0.4l-0.2-0.7c0.5-0.3,1.2-0.5,2-0.5c1.8,0,2.3,1.3,2.3,2.5v2.2c0,0.5,0,1,0.1,1.4H387.9z M387.7,163.9
		c-1.2,0-2.5,0.2-2.5,1.4c0,0.7,0.5,1,1,1c0.8,0,1.3-0.5,1.5-1c0-0.1,0.1-0.2,0.1-0.3V163.9z"/>
	<path d="M390.6,158.2h1.1v8.8h-1.1V158.2z"/>
	<path d="M393.5,162.6c0-0.6,0-1.1,0-1.6h1l0,1h0c0.3-0.6,0.9-1.1,1.9-1.1c0.8,0,1.4,0.5,1.7,1.2h0c0.2-0.3,0.4-0.6,0.7-0.8
		c0.4-0.3,0.8-0.4,1.3-0.4c0.8,0,2,0.5,2,2.6v3.5H401v-3.4c0-1.2-0.4-1.8-1.3-1.8c-0.6,0-1.1,0.5-1.3,1c0,0.1-0.1,0.3-0.1,0.5v3.7
		h-1.1v-3.6c0-1-0.4-1.6-1.3-1.6c-0.7,0-1.2,0.5-1.4,1.1c-0.1,0.2-0.1,0.3-0.1,0.5v3.6h-1.1V162.6z"/>
	<path d="M375.6,179.4c0-0.8,0-1.4,0-2h1l0,1h0c0.4-0.7,1.2-1.2,2.1-1.2c1.5,0,2.5,1.2,2.5,3.1c0,2.2-1.3,3.2-2.7,3.2
		c-0.8,0-1.5-0.3-1.8-0.9h0v3.3h-1.1V179.4z M376.7,181c0,0.2,0,0.3,0,0.4c0.2,0.8,0.9,1.3,1.6,1.3c1.2,0,1.8-0.9,1.8-2.3
		c0-1.2-0.6-2.2-1.8-2.2c-0.7,0-1.4,0.5-1.7,1.4c0,0.1-0.1,0.3-0.1,0.4V181z"/>
	<path d="M382.7,179.3c0-0.7,0-1.3,0-1.9h1l0,1.2h0c0.3-0.8,0.9-1.3,1.7-1.3c0.1,0,0.2,0,0.3,0v1c-0.1,0-0.2,0-0.4,0
		c-0.8,0-1.3,0.6-1.5,1.4c0,0.1,0,0.3,0,0.5v3.2h-1.1V179.3z"/>
	<path d="M392,180.4c0,2.2-1.5,3.2-3,3.2c-1.6,0-2.9-1.2-2.9-3.1c0-2,1.3-3.2,3-3.2C390.9,177.3,392,178.5,392,180.4z M387.3,180.4
		c0,1.3,0.8,2.3,1.8,2.3c1,0,1.8-1,1.8-2.3c0-1-0.5-2.3-1.8-2.3S387.3,179.3,387.3,180.4z"/>
	<path d="M398.4,181.8c0,0.6,0,1.2,0,1.6h-1l-0.1-1h0c-0.3,0.5-0.9,1.1-2,1.1c-0.9,0-2.1-0.5-2.1-2.6v-3.5h1.1v3.3
		c0,1.1,0.3,1.9,1.3,1.9c0.7,0,1.2-0.5,1.4-1c0.1-0.2,0.1-0.4,0.1-0.6v-3.7h1.1V181.8z"/>
	<path d="M405.4,174.6v7.3c0,0.5,0,1.1,0,1.6h-1l0-1h0c-0.3,0.7-1.1,1.2-2,1.2c-1.5,0-2.6-1.2-2.6-3.1c0-2,1.2-3.2,2.7-3.2
		c0.9,0,1.5,0.4,1.8,0.9h0v-3.6H405.4z M404.3,179.8c0-0.1,0-0.3,0-0.5c-0.2-0.7-0.8-1.3-1.6-1.3c-1.1,0-1.8,1-1.8,2.3
		c0,1.2,0.6,2.2,1.8,2.2c0.7,0,1.4-0.5,1.6-1.3c0-0.1,0-0.3,0-0.5V179.8z"/>
	<path d="M372.2,193.8c0,0.4,0,0.9,0,1.6v3.5c0,1.4-0.3,2.2-0.9,2.7c-0.6,0.5-1.4,0.7-2.2,0.7c-0.7,0-1.5-0.2-2-0.5l0.3-0.8
		c0.4,0.2,1,0.5,1.8,0.5c1.1,0,1.9-0.6,1.9-2.1v-0.7h0c-0.3,0.6-1,1-1.9,1c-1.5,0-2.6-1.3-2.6-2.9c0-2,1.3-3.2,2.7-3.2
		c1,0,1.6,0.5,1.9,1h0l0-0.9H372.2z M371.1,196.2c0-0.2,0-0.3-0.1-0.5c-0.2-0.6-0.7-1.2-1.5-1.2c-1,0-1.8,0.9-1.8,2.3
		c0,1.2,0.6,2.2,1.8,2.2c0.7,0,1.3-0.4,1.5-1.1c0.1-0.2,0.1-0.4,0.1-0.6V196.2z"/>
	<path d="M374.6,197c0,1.5,1,2.1,2.1,2.1c0.8,0,1.3-0.1,1.7-0.3l0.2,0.8c-0.4,0.2-1,0.4-2,0.4c-1.8,0-3-1.2-3-3
		c0-1.8,1.1-3.2,2.8-3.2c2,0,2.5,1.7,2.5,2.8c0,0.2,0,0.4,0,0.5H374.6z M377.8,196.3c0-0.7-0.3-1.8-1.5-1.8c-1.1,0-1.6,1-1.7,1.8
		H377.8z"/>
	<path d="M380.2,195.5c0-0.6,0-1.1,0-1.6h1l0.1,1h0c0.3-0.6,1-1.1,2-1.1c0.8,0,2.1,0.5,2.1,2.6v3.6h-1.1v-3.5c0-1-0.4-1.8-1.4-1.8
		c-0.7,0-1.3,0.5-1.5,1.1c0,0.1-0.1,0.3-0.1,0.5v3.6h-1.1V195.5z"/>
	<path d="M387.7,197c0,1.5,1,2.1,2.1,2.1c0.8,0,1.3-0.1,1.7-0.3l0.2,0.8c-0.4,0.2-1,0.4-2,0.4c-1.8,0-3-1.2-3-3
		c0-1.8,1.1-3.2,2.8-3.2c2,0,2.5,1.7,2.5,2.8c0,0.2,0,0.4,0,0.5H387.7z M390.9,196.3c0-0.7-0.3-1.8-1.5-1.8c-1.1,0-1.6,1-1.7,1.8
		H390.9z"/>
	<path d="M393.3,195.7c0-0.7,0-1.3,0-1.9h1l0,1.2h0c0.3-0.8,0.9-1.3,1.7-1.3c0.1,0,0.2,0,0.3,0v1c-0.1,0-0.2,0-0.4,0
		c-0.8,0-1.3,0.6-1.5,1.4c0,0.1,0,0.3,0,0.5v3.2h-1.1V195.7z"/>
	<path d="M402.7,196.8c0,2.2-1.5,3.2-3,3.2c-1.6,0-2.9-1.2-2.9-3.1c0-2,1.3-3.2,3-3.2C401.5,193.7,402.7,195,402.7,196.8z
		 M397.9,196.9c0,1.3,0.8,2.3,1.8,2.3c1,0,1.8-1,1.8-2.3c0-1-0.5-2.3-1.8-2.3S397.9,195.7,397.9,196.9z"/>
	<path d="M409.1,198.2c0,0.6,0,1.2,0,1.6h-1l-0.1-1h0c-0.3,0.5-0.9,1.1-2,1.1c-0.9,0-2.1-0.5-2.1-2.6v-3.5h1.1v3.3
		c0,1.1,0.3,1.9,1.3,1.9c0.7,0,1.2-0.5,1.4-1c0.1-0.2,0.1-0.4,0.1-0.6v-3.7h1.1V198.2z"/>
	<path d="M410.7,198.7c0.3,0.2,0.9,0.4,1.4,0.4c0.8,0,1.2-0.4,1.2-0.9c0-0.5-0.3-0.8-1.1-1.1c-1.1-0.4-1.6-1-1.6-1.7
		c0-1,0.8-1.8,2.1-1.8c0.6,0,1.1,0.2,1.5,0.4l-0.3,0.8c-0.2-0.1-0.7-0.3-1.2-0.3c-0.6,0-1,0.4-1,0.8c0,0.5,0.4,0.7,1.1,1
		c1,0.4,1.6,0.9,1.6,1.8c0,1.1-0.8,1.8-2.2,1.8c-0.7,0-1.3-0.2-1.7-0.4L410.7,198.7z"/>
	<path d="M373.1,216.3c0-0.4,0-1,0-1.6v-7.3h1.1v3.8h0c0.4-0.7,1.1-1.1,2-1.1c1.5,0,2.5,1.2,2.5,3.1c0,2.1-1.4,3.2-2.7,3.2
		c-0.9,0-1.6-0.3-2-1.1h0l0,1H373.1z M374.2,213.9c0,0.1,0,0.3,0,0.4c0.2,0.8,0.8,1.3,1.6,1.3c1.1,0,1.8-0.9,1.8-2.3
		c0-1.2-0.6-2.2-1.8-2.2c-0.7,0-1.4,0.5-1.7,1.3c0,0.1-0.1,0.3-0.1,0.4V213.9z"/>
	<path d="M380.2,212.2c0-0.7,0-1.3,0-1.9h1l0,1.2h0c0.3-0.8,0.9-1.3,1.7-1.3c0.1,0,0.2,0,0.3,0v1c-0.1,0-0.2,0-0.4,0
		c-0.8,0-1.3,0.6-1.5,1.4c0,0.1,0,0.3,0,0.5v3.2h-1.1V212.2z"/>
	<path d="M387.5,216.3l-0.1-0.8h0c-0.3,0.5-1,0.9-1.8,0.9c-1.2,0-1.8-0.9-1.8-1.7c0-1.5,1.3-2.2,3.6-2.2v-0.1c0-0.5-0.1-1.4-1.4-1.4
		c-0.6,0-1.1,0.2-1.6,0.4l-0.2-0.7c0.5-0.3,1.2-0.5,2-0.5c1.8,0,2.3,1.3,2.3,2.5v2.2c0,0.5,0,1,0.1,1.4H387.5z M387.4,213.2
		c-1.2,0-2.5,0.2-2.5,1.4c0,0.7,0.5,1,1,1c0.8,0,1.3-0.5,1.5-1c0-0.1,0.1-0.2,0.1-0.3V213.2z"/>
	<path d="M390.5,210.3l1.2,3.4c0.2,0.5,0.4,1,0.5,1.5h0c0.1-0.5,0.3-1,0.5-1.5l1.2-3.4h1.1l-2.4,6h-1l-2.3-6H390.5z"/>
	<path d="M396.5,213.5c0,1.5,1,2.1,2.1,2.1c0.8,0,1.3-0.1,1.7-0.3l0.2,0.8c-0.4,0.2-1,0.4-2,0.4c-1.8,0-3-1.2-3-3
		c0-1.8,1.1-3.2,2.8-3.2c2,0,2.5,1.7,2.5,2.8c0,0.2,0,0.4,0,0.5H396.5z M399.7,212.7c0-0.7-0.3-1.8-1.5-1.8c-1.1,0-1.6,1-1.7,1.8
		H399.7z"/>
	<path d="M401.7,215.7c0-0.5,0.3-0.8,0.7-0.8s0.7,0.3,0.7,0.8c0,0.4-0.3,0.8-0.7,0.8C402,216.4,401.7,216.1,401.7,215.7z"/>
	<path d="M404.3,215.7c0-0.5,0.3-0.8,0.7-0.8c0.4,0,0.7,0.3,0.7,0.8c0,0.4-0.3,0.8-0.7,0.8C404.6,216.4,404.3,216.1,404.3,215.7z"/>
	<path d="M406.9,215.7c0-0.5,0.3-0.8,0.7-0.8c0.4,0,0.7,0.3,0.7,0.8c0,0.4-0.3,0.8-0.7,0.8C407.2,216.4,406.9,216.1,406.9,215.7z"/>
</g>
<g>
	<path d="M266.3,143.3c0.4-0.1,1.2-0.2,1.9-0.2c1,0,1.6,0.1,2.1,0.5c0.5,0.3,0.8,0.7,0.8,1.4c0,0.7-0.4,1.3-1.2,1.6v0
		c0.8,0.2,1.5,0.8,1.5,1.8c0,0.7-0.3,1.2-0.7,1.5c-0.5,0.5-1.4,0.7-2.7,0.7c-0.7,0-1.3-0.1-1.6-0.1V143.3z M267.6,146.2h0.7
		c0.9,0,1.4-0.4,1.4-1.1c0-0.7-0.5-1-1.4-1c-0.4,0-0.6,0-0.8,0.1V146.2z M267.6,149.5c0.2,0,0.4,0,0.7,0c0.9,0,1.6-0.3,1.6-1.2
		c0-0.8-0.7-1.2-1.7-1.2h-0.7V149.5z"/>
	<path d="M277.6,147.8c0,1.9-1.4,2.8-2.7,2.8c-1.5,0-2.6-1-2.6-2.7c0-1.7,1.1-2.8,2.7-2.8C276.5,145.1,277.6,146.2,277.6,147.8z
		 M273.6,147.9c0,1,0.5,1.8,1.3,1.8c0.8,0,1.3-0.7,1.3-1.8c0-0.8-0.4-1.8-1.3-1.8C274,146.1,273.6,147,273.6,147.9z"/>
	<path d="M280.2,143.7v1.5h1.3v1h-1.3v2.3c0,0.6,0.2,1,0.7,1c0.2,0,0.4,0,0.5-0.1l0,1c-0.2,0.1-0.5,0.1-1,0.1
		c-0.5,0-0.9-0.2-1.2-0.4c-0.3-0.3-0.4-0.8-0.4-1.5v-2.5h-0.8v-1h0.8V144L280.2,143.7z"/>
	<path d="M282.5,142.8h1.3v3.1h0c0.2-0.2,0.4-0.5,0.7-0.6c0.3-0.2,0.6-0.2,0.9-0.2c0.9,0,1.8,0.6,1.8,2.3v3.1h-1.3v-3
		c0-0.8-0.3-1.3-1-1.3c-0.5,0-0.9,0.3-1,0.7c0,0.1-0.1,0.2-0.1,0.4v3.2h-1.3V142.8z"/>
	<path d="M265.5,158.2h1.1v8.8h-1.1V158.2z"/>
	<path d="M273.8,163.9c0,2.2-1.5,3.2-3,3.2c-1.6,0-2.9-1.2-2.9-3.1c0-2,1.3-3.2,3-3.2C272.7,160.8,273.8,162.1,273.8,163.9z
		 M269.1,164c0,1.3,0.8,2.3,1.8,2.3c1,0,1.8-1,1.8-2.3c0-1-0.5-2.3-1.8-2.3S269.1,162.8,269.1,164z"/>
	<path d="M275.5,161l1.3,3.5c0.1,0.4,0.3,0.9,0.4,1.2h0c0.1-0.4,0.2-0.8,0.4-1.3l1.2-3.5h1.2l-1.6,4.3c-0.8,2.1-1.3,3.1-2.1,3.8
		c-0.5,0.5-1.1,0.7-1.3,0.7l-0.3-0.9c0.3-0.1,0.6-0.3,1-0.5c0.3-0.2,0.7-0.7,0.9-1.2c0-0.1,0.1-0.2,0.1-0.3c0-0.1,0-0.1-0.1-0.3
		l-2.2-5.5H275.5z"/>
	<path d="M284.3,167l-0.1-0.8h0c-0.3,0.5-1,0.9-1.8,0.9c-1.2,0-1.8-0.9-1.8-1.7c0-1.5,1.3-2.2,3.6-2.2V163c0-0.5-0.1-1.4-1.4-1.4
		c-0.6,0-1.1,0.2-1.6,0.4l-0.2-0.7c0.5-0.3,1.2-0.5,2-0.5c1.8,0,2.3,1.3,2.3,2.5v2.2c0,0.5,0,1,0.1,1.4H284.3z M284.1,163.9
		c-1.2,0-2.5,0.2-2.5,1.4c0,0.7,0.5,1,1,1c0.8,0,1.3-0.5,1.5-1c0-0.1,0.1-0.2,0.1-0.3V163.9z"/>
	<path d="M286.9,158.2h1.1v8.8h-1.1V158.2z"/>
	<path d="M248.4,175.7c0,0.4-0.3,0.7-0.7,0.7c-0.4,0-0.7-0.3-0.7-0.7c0-0.4,0.3-0.7,0.7-0.7C248.2,175,248.4,175.3,248.4,175.7z
		 M247.2,183.4v-6h1.1v6H247.2z"/>
	<path d="M250.1,179c0-0.6,0-1.1,0-1.6h1l0,1h0c0.3-0.6,0.9-1.1,1.9-1.1c0.8,0,1.4,0.5,1.7,1.2h0c0.2-0.3,0.4-0.6,0.7-0.8
		c0.4-0.3,0.8-0.4,1.3-0.4c0.8,0,2,0.5,2,2.6v3.5h-1.1V180c0-1.2-0.4-1.8-1.3-1.8c-0.6,0-1.1,0.5-1.3,1c0,0.1-0.1,0.3-0.1,0.5v3.7
		h-1.1v-3.6c0-1-0.4-1.6-1.3-1.6c-0.7,0-1.2,0.5-1.4,1.1c-0.1,0.2-0.1,0.3-0.1,0.5v3.6h-1.1V179z"/>
	<path d="M263.8,183.4l-0.1-0.8h0c-0.3,0.5-1,0.9-1.8,0.9c-1.2,0-1.8-0.9-1.8-1.7c0-1.5,1.3-2.2,3.6-2.2v-0.1c0-0.5-0.1-1.4-1.4-1.4
		c-0.6,0-1.1,0.2-1.6,0.4l-0.2-0.7c0.5-0.3,1.2-0.5,2-0.5c1.8,0,2.3,1.3,2.3,2.5v2.2c0,0.5,0,1,0.1,1.4H263.8z M263.6,180.3
		c-1.2,0-2.5,0.2-2.5,1.4c0,0.7,0.5,1,1,1c0.8,0,1.3-0.5,1.5-1c0-0.1,0.1-0.2,0.1-0.3V180.3z"/>
	<path d="M271.6,177.4c0,0.4,0,0.9,0,1.6v3.5c0,1.4-0.3,2.2-0.9,2.7c-0.6,0.5-1.4,0.7-2.2,0.7c-0.7,0-1.5-0.2-2-0.5l0.3-0.8
		c0.4,0.2,1,0.5,1.8,0.5c1.1,0,1.9-0.6,1.9-2.1v-0.7h0c-0.3,0.6-1,1-1.9,1c-1.5,0-2.6-1.3-2.6-2.9c0-2,1.3-3.2,2.7-3.2
		c1,0,1.6,0.5,1.9,1h0l0-0.9H271.6z M270.5,179.8c0-0.2,0-0.3-0.1-0.5c-0.2-0.6-0.7-1.2-1.5-1.2c-1,0-1.8,0.9-1.8,2.3
		c0,1.2,0.6,2.2,1.8,2.2c0.7,0,1.3-0.4,1.5-1.1c0.1-0.2,0.1-0.4,0.1-0.6V179.8z"/>
	<path d="M274.5,175.7c0,0.4-0.3,0.7-0.7,0.7c-0.4,0-0.7-0.3-0.7-0.7c0-0.4,0.3-0.7,0.7-0.7C274.3,175,274.5,175.3,274.5,175.7z
		 M273.3,183.4v-6h1.1v6H273.3z"/>
	<path d="M276.2,179c0-0.6,0-1.1,0-1.6h1l0.1,1h0c0.3-0.6,1-1.1,2-1.1c0.8,0,2.1,0.5,2.1,2.6v3.6h-1.1v-3.5c0-1-0.4-1.8-1.4-1.8
		c-0.7,0-1.3,0.5-1.5,1.1c0,0.1-0.1,0.3-0.1,0.5v3.6h-1.1V179z"/>
	<path d="M286.4,183.4l-0.1-0.8h0c-0.3,0.5-1,0.9-1.8,0.9c-1.2,0-1.8-0.9-1.8-1.7c0-1.5,1.3-2.2,3.6-2.2v-0.1c0-0.5-0.1-1.4-1.4-1.4
		c-0.6,0-1.1,0.2-1.6,0.4l-0.2-0.7c0.5-0.3,1.2-0.5,2-0.5c1.8,0,2.3,1.3,2.3,2.5v2.2c0,0.5,0,1,0.1,1.4H286.4z M286.3,180.3
		c-1.2,0-2.5,0.2-2.5,1.4c0,0.7,0.5,1,1,1c0.8,0,1.3-0.5,1.5-1c0-0.1,0.1-0.2,0.1-0.3V180.3z"/>
	<path d="M290.3,175.7v1.7h1.6v0.8h-1.6v3.2c0,0.7,0.2,1.2,0.8,1.2c0.3,0,0.5,0,0.6-0.1l0,0.8c-0.2,0.1-0.5,0.1-1,0.1
		c-0.5,0-0.9-0.2-1.2-0.5c-0.3-0.3-0.4-0.9-0.4-1.6v-3.3h-0.9v-0.8h0.9V176L290.3,175.7z"/>
	<path d="M294.4,175.7c0,0.4-0.3,0.7-0.7,0.7c-0.4,0-0.7-0.3-0.7-0.7c0-0.4,0.3-0.7,0.7-0.7C294.1,175,294.4,175.3,294.4,175.7z
		 M293.1,183.4v-6h1.1v6H293.1z"/>
	<path d="M296.5,177.4l1.2,3.4c0.2,0.5,0.4,1,0.5,1.5h0c0.1-0.5,0.3-1,0.5-1.5l1.2-3.4h1.1l-2.4,6h-1l-2.3-6H296.5z"/>
	<path d="M302.5,180.6c0,1.5,1,2.1,2.1,2.1c0.8,0,1.3-0.1,1.7-0.3l0.2,0.8c-0.4,0.2-1,0.4-2,0.4c-1.8,0-3-1.2-3-3
		c0-1.8,1.1-3.2,2.8-3.2c2,0,2.5,1.7,2.5,2.8c0,0.2,0,0.4,0,0.5H302.5z M305.7,179.8c0-0.7-0.3-1.8-1.5-1.8c-1.1,0-1.6,1-1.7,1.8
		H305.7z"/>
	<path d="M249.8,192.2c0,0.4-0.3,0.7-0.7,0.7c-0.4,0-0.7-0.3-0.7-0.7c0-0.4,0.3-0.7,0.7-0.7C249.6,191.5,249.8,191.8,249.8,192.2z
		 M248.6,199.9v-6h1.1v6H248.6z"/>
	<path d="M251.5,195.5c0-0.6,0-1.1,0-1.6h1l0,1h0c0.3-0.6,0.9-1.1,1.9-1.1c0.8,0,1.4,0.5,1.7,1.2h0c0.2-0.3,0.4-0.6,0.7-0.8
		c0.4-0.3,0.8-0.4,1.3-0.4c0.8,0,2,0.5,2,2.6v3.5H259v-3.4c0-1.2-0.4-1.8-1.3-1.8c-0.6,0-1.1,0.5-1.3,1c0,0.1-0.1,0.3-0.1,0.5v3.7
		h-1.1v-3.6c0-1-0.4-1.6-1.3-1.6c-0.7,0-1.2,0.5-1.4,1.1c-0.1,0.2-0.1,0.3-0.1,0.5v3.6h-1.1V195.5z"/>
	<path d="M261.9,195.8c0-0.8,0-1.4,0-2h1l0,1h0c0.4-0.7,1.2-1.2,2.1-1.2c1.5,0,2.5,1.2,2.5,3.1c0,2.2-1.3,3.2-2.7,3.2
		c-0.8,0-1.5-0.3-1.8-0.9h0v3.3h-1.1V195.8z M262.9,197.4c0,0.2,0,0.3,0,0.4c0.2,0.8,0.9,1.3,1.6,1.3c1.2,0,1.8-0.9,1.8-2.3
		c0-1.2-0.6-2.2-1.8-2.2c-0.7,0-1.4,0.5-1.6,1.4c0,0.1-0.1,0.3-0.1,0.4V197.4z"/>
	<path d="M272.3,199.9l-0.1-0.8h0c-0.3,0.5-1,0.9-1.8,0.9c-1.2,0-1.8-0.9-1.8-1.7c0-1.5,1.3-2.2,3.6-2.2v-0.1c0-0.5-0.1-1.4-1.4-1.4
		c-0.6,0-1.1,0.2-1.6,0.4l-0.2-0.7c0.5-0.3,1.2-0.5,2-0.5c1.8,0,2.3,1.3,2.3,2.5v2.2c0,0.5,0,1,0.1,1.4H272.3z M272.1,196.8
		c-1.2,0-2.5,0.2-2.5,1.4c0,0.7,0.5,1,1,1c0.8,0,1.3-0.5,1.5-1c0-0.1,0.1-0.2,0.1-0.3V196.8z"/>
	<path d="M276.2,192.1v1.7h1.6v0.8h-1.6v3.2c0,0.7,0.2,1.2,0.8,1.2c0.3,0,0.5,0,0.6-0.1l0,0.8c-0.2,0.1-0.5,0.1-1,0.1
		c-0.5,0-0.9-0.2-1.2-0.5c-0.3-0.3-0.4-0.9-0.4-1.6v-3.3h-0.9v-0.8h0.9v-1.4L276.2,192.1z"/>
	<path d="M280.2,192.2c0,0.4-0.3,0.7-0.7,0.7c-0.4,0-0.7-0.3-0.7-0.7c0-0.4,0.3-0.7,0.7-0.7C279.9,191.5,280.2,191.8,280.2,192.2z
		 M279,199.9v-6h1.1v6H279z"/>
	<path d="M282.5,197c0,1.5,1,2.1,2.1,2.1c0.8,0,1.3-0.1,1.7-0.3l0.2,0.8c-0.4,0.2-1,0.4-2,0.4c-1.8,0-3-1.2-3-3
		c0-1.8,1.1-3.2,2.8-3.2c2,0,2.5,1.7,2.5,2.8c0,0.2,0,0.4,0,0.5H282.5z M285.7,196.3c0-0.7-0.3-1.8-1.5-1.8c-1.1,0-1.6,1-1.7,1.8
		H285.7z"/>
	<path d="M288.1,195.5c0-0.6,0-1.1,0-1.6h1l0.1,1h0c0.3-0.6,1-1.1,2-1.1c0.8,0,2.1,0.5,2.1,2.6v3.6h-1.1v-3.5c0-1-0.4-1.8-1.4-1.8
		c-0.7,0-1.3,0.5-1.5,1.1c0,0.1-0.1,0.3-0.1,0.5v3.6h-1.1V195.5z"/>
	<path d="M296.2,192.1v1.7h1.6v0.8h-1.6v3.2c0,0.7,0.2,1.2,0.8,1.2c0.3,0,0.5,0,0.6-0.1l0,0.8c-0.2,0.1-0.5,0.1-1,0.1
		c-0.5,0-0.9-0.2-1.2-0.5c-0.3-0.3-0.4-0.9-0.4-1.6v-3.3h-0.9v-0.8h0.9v-1.4L296.2,192.1z"/>
	<path d="M298.7,199.2c0-0.5,0.3-0.8,0.7-0.8c0.4,0,0.7,0.3,0.7,0.8c0,0.4-0.3,0.8-0.7,0.8C299,200,298.7,199.7,298.7,199.2z"/>
	<path d="M301.3,199.2c0-0.5,0.3-0.8,0.7-0.8c0.4,0,0.7,0.3,0.7,0.8c0,0.4-0.3,0.8-0.7,0.8C301.6,200,301.3,199.7,301.3,199.2z"/>
	<path d="M303.9,199.2c0-0.5,0.3-0.8,0.7-0.8s0.7,0.3,0.7,0.8c0,0.4-0.3,0.8-0.7,0.8C304.2,200,303.9,199.7,303.9,199.2z"/>
</g>
</svg>
