<?xml version="1.0" encoding="utf-8"?>
<!-- Generator: Adobe Illustrator 24.0.1, SVG Export Plug-In . SVG Version: 6.00 Build 0)  -->
<svg version="1.1" id="Layer_1" xmlns="http://www.w3.org/2000/svg" xmlns:xlink="http://www.w3.org/1999/xlink" x="0px" y="0px"
	 viewBox="0 0 395.2 232.4" style="enable-background:new 0 0 395.2 232.4;" xml:space="preserve">
<style type="text/css">
	.st0{fill:#C2E8FB;stroke:#414042;stroke-width:0.5;stroke-miterlimit:10;}
	.st1{stroke:#000000;stroke-miterlimit:10;}
	.st2{stroke:#C2E8FB;stroke-width:5;stroke-miterlimit:10;}
	.st3{stroke:#FFFFFF;stroke-width:5;stroke-miterlimit:10;}
	.st4{fill:none;stroke:#000000;stroke-width:6;stroke-miterlimit:10;}
	.st5{fill:none;stroke:#58595B;stroke-width:0.5;stroke-miterlimit:10;}
</style>
<rect x="1" y="0.3" class="st0" width="394.7" height="234"/>
<g>
	<ellipse class="st1" cx="227.4" cy="157.3" rx="14.9" ry="16.8"/>
	<path class="st1" d="M196.2,220.7v-40c0-4.3,3.5-7.9,7.9-7.9h45.8c4.3,0,7.9,3.5,7.9,7.9v40"/>
	<line class="st2" x1="210.7" y1="190.6" x2="210.7" y2="221"/>
	<line class="st2" x1="241.6" y1="190" x2="241.6" y2="221"/>
</g>
<g>
	<ellipse class="st1" cx="259.5" cy="40.7" rx="14.9" ry="16.8"/>
	<path class="st1" d="M228.3,104.2v-40c0-4.3,3.5-7.9,7.9-7.9H282c4.3,0,7.9,3.5,7.9,7.9v40"/>
	<line class="st2" x1="242.8" y1="74" x2="242.8" y2="104.5"/>
	<line class="st2" x1="273.7" y1="73.5" x2="273.7" y2="104.5"/>
</g>
<g>
	<ellipse class="st1" cx="300.2" cy="50.2" rx="14.9" ry="16.8"/>
	<path class="st1" d="M269.1,113.6v-40c0-4.3,3.5-7.9,7.9-7.9h45.8c4.3,0,7.9,3.5,7.9,7.9v40"/>
	<line class="st2" x1="283.5" y1="83.5" x2="283.5" y2="113.9"/>
	<line class="st2" x1="314.4" y1="82.9" x2="314.4" y2="113.9"/>
</g>
<g>
	<path class="st1" d="M20.3,123.8v-40c0-4.3,3.5-7.9,7.9-7.9h45.8c4.3,0,7.9,3.5,7.9,7.9v40"/>
	<line class="st2" x1="34.7" y1="93.6" x2="34.7" y2="124.1"/>
	<line class="st2" x1="65.6" y1="93.1" x2="65.6" y2="124.1"/>
	<g>
		<ellipse class="st1" cx="52.8" cy="60.8" rx="19.5" ry="14.9"/>
		<circle class="st3" cx="52.8" cy="60.8" r="8"/>
	</g>
</g>
<g>
	<line class="st4" x1="83.9" y1="47" x2="115.7" y2="42.1"/>
	<line class="st4" x1="126.2" y1="40.5" x2="158.1" y2="35.7"/>
	<line class="st4" x1="171.1" y1="33.7" x2="202.9" y2="28.8"/>
	<line class="st4" x1="212.9" y1="27.3" x2="244.8" y2="22.4"/>
	<line class="st4" x1="256.3" y1="20.7" x2="288.1" y2="15.9"/>
	<line class="st4" x1="67.2" y1="49.1" x2="75.3" y2="47.9"/>
</g>
<g>
	<line class="st4" x1="84.8" y1="72.9" x2="112.7" y2="82.3"/>
	<line class="st4" x1="121.9" y1="85.4" x2="149.8" y2="94.7"/>
	<line class="st4" x1="161.2" y1="98.5" x2="189.1" y2="107.8"/>
	<line class="st4" x1="198" y1="110.8" x2="225.9" y2="120.1"/>
	<line class="st4" x1="236" y1="123.4" x2="263.9" y2="132.7"/>
	<line class="st4" x1="70.1" y1="68.5" x2="77.2" y2="70.9"/>
</g>
<rect x="-0.1" y="0.1" class="st5" width="394.7" height="231.9"/>
</svg>
