<?xml version="1.0" encoding="utf-8"?>
<!-- Generator: Adobe Illustrator 24.0.1, SVG Export Plug-In . SVG Version: 6.00 Build 0)  -->
<svg version="1.1" id="Layer_1" xmlns="http://www.w3.org/2000/svg" xmlns:xlink="http://www.w3.org/1999/xlink" x="0px" y="0px"
	 viewBox="0 0 395.9 234.2" style="enable-background:new 0 0 395.9 234.2;" xml:space="preserve">
<style type="text/css">
	.st0{fill:#C2E8FB;stroke:#414042;stroke-width:0.5;stroke-miterlimit:10;}
	.st1{stroke:#000000;stroke-miterlimit:10;}
	.st2{stroke:#C2E8FB;stroke-width:7;stroke-miterlimit:10;}
	.st3{stroke:#FFFFFF;stroke-width:5;stroke-miterlimit:10;}
	.st4{fill:none;stroke:#C2E8FB;stroke-width:6;stroke-miterlimit:10;}
	.st5{fill:none;stroke:#000000;stroke-width:6;stroke-miterlimit:10;}
</style>
<rect x="0" y="-0.1" class="st0" width="394.7" height="234"/>
<ellipse class="st1" cx="194.7" cy="97.9" rx="22.7" ry="25.7"/>
<path class="st1" d="M147.2,194.7v-61.1c0-6.6,5.4-12,12-12h69.9c6.6,0,12,5.4,12,12v61.1"/>
<line class="st2" x1="169.2" y1="148.7" x2="169.2" y2="195.2"/>
<line class="st2" x1="216.4" y1="147.9" x2="216.4" y2="195.2"/>
<ellipse class="st1" cx="298.6" cy="79.8" rx="22.7" ry="25.7"/>
<path class="st1" d="M251.1,176.6v-61.1c0-6.6,5.4-12,12-12h69.9c6.6,0,12,5.4,12,12v61.1"/>
<line class="st2" x1="273.1" y1="130.6" x2="273.1" y2="177.1"/>
<line class="st2" x1="320.2" y1="129.8" x2="320.2" y2="177.1"/>
<g>
	<path class="st1" d="M42.2,161.7v-61.1c0-6.6,5.4-12,12-12h69.9c6.6,0,12,5.4,12,12v61.1"/>
	<line class="st2" x1="64.2" y1="115.7" x2="64.2" y2="162.2"/>
	<line class="st2" x1="111.4" y1="114.9" x2="111.4" y2="162.2"/>
	<g>
		<ellipse class="st1" cx="91.9" cy="61.7" rx="29.7" ry="22.8"/>
		<circle class="st3" cx="91.9" cy="61.7" r="12.3"/>
	</g>
</g>
<g>
	<line class="st4" x1="81.7" y1="78.3" x2="90.7" y2="98.5"/>
	<line class="st4" x1="93.6" y1="105.1" x2="102.6" y2="125.3"/>
	<line class="st5" x1="106.3" y1="133.5" x2="115.3" y2="153.6"/>
	<line class="st5" x1="118.1" y1="159.9" x2="127.1" y2="180.1"/>
</g>
<g>
	<line class="st5" x1="131" y1="51.6" x2="153" y2="53.1"/>
	<line class="st5" x1="160.2" y1="53.5" x2="182.2" y2="55"/>
	<line class="st5" x1="191.2" y1="55.5" x2="213.2" y2="57"/>
	<line class="st5" x1="220.1" y1="57.4" x2="242.1" y2="58.8"/>
	<line class="st5" x1="250.1" y1="59.4" x2="272.1" y2="60.8"/>
	<line class="st5" x1="119.5" y1="50.5" x2="125.1" y2="50.8"/>
</g>
</svg>
