<svg xmlns="http://www.w3.org/2000/svg" viewBox="0 0 100 100"><defs><style>.cls-1{fill:#f9fbed;stroke-miterlimit:10;}.cls-1,.cls-2,.cls-3,.cls-4{stroke:#0e8a16;stroke-width:1.74px;}.cls-2,.cls-3{fill:#fff;}.cls-2,.cls-3,.cls-4{stroke-linejoin:round;}.cls-3{stroke-linecap:round;}.cls-4{fill:#cdde54;}</style></defs><title>Artboard 2</title><g id="blog"><circle class="cls-1" cx="50" cy="49.52" r="46.67"/><path class="cls-2" d="M66.55,33.41h-34a4.71,4.71,0,0,0-4.71,4.71V58.24A4.71,4.71,0,0,0,32.53,63H52.15L64,71.82,61.72,63h4.83a4.71,4.71,0,0,0,4.71-4.71V38.12A4.71,4.71,0,0,0,66.55,33.41Z"/><line class="cls-3" x1="35.12" y1="48.18" x2="63.96" y2="48.18"/><line class="cls-3" x1="35.12" y1="41.44" x2="63.96" y2="41.44"/><line class="cls-3" x1="35.12" y1="54.91" x2="49.1" y2="54.91"/><rect class="cls-4" x="50.91" y="35.75" width="27.45" height="7.97" transform="translate(-9.17 57.34) rotate(-45)"/><polygon class="cls-2" points="57.75 52.27 49.46 54.91 52.11 46.63 57.75 52.27"/></g></svg>