<svg xmlns="http://www.w3.org/2000/svg" viewBox="0 0 100 100"><defs><style>.cls-1{fill:#f9fbed;}.cls-1,.cls-2,.cls-3,.cls-4{stroke:#0e8a16;stroke-width:1.74px;}.cls-1,.cls-3,.cls-4{stroke-miterlimit:10;}.cls-2{fill:#cdde54;stroke-linejoin:round;}.cls-3{fill:#fff;}.cls-4{fill:none;stroke-linecap:round;}</style></defs><title>Artboard 2</title><g id="caseStudy"><circle class="cls-1" cx="50" cy="49.53" r="46.67"/><path class="cls-2" d="M71.93,68.3H27.58A2.28,2.28,0,0,1,25.31,66V32a2.28,2.28,0,0,1,2.27-2.28H39.37a2,2,0,0,1,.42,0A2.58,2.58,0,0,1,41.52,31l1.25,2H71.93a2.27,2.27,0,0,1,2.27,2.27V66A2.28,2.28,0,0,1,71.93,68.3Z"/><rect class="cls-3" x="30.59" y="38.77" width="38.83" height="26.86" rx="1.06"/><line class="cls-4" x1="39.12" y1="60.01" x2="39.12" y2="44.57"/><line class="cls-4" x1="46.11" y1="60.01" x2="46.11" y2="44.57"/><line class="cls-4" x1="53.11" y1="60.01" x2="53.11" y2="44.57"/><path class="cls-2" d="M72.33,68.3H28c-1.25,0-1.82-.55-1.25-1.22L40.45,50.74a4.85,4.85,0,0,1,3.29-1.21H88.09c1.26,0,1.82.54,1.25,1.21L75.62,67.08A4.86,4.86,0,0,1,72.33,68.3Z"/></g></svg>