<svg xmlns="http://www.w3.org/2000/svg" xmlns:xlink="http://www.w3.org/1999/xlink" viewBox="0 0 100 100"><defs><style>.cls-1,.cls-3{fill:#cdde54;}.cls-1,.cls-2,.cls-3,.cls-4,.cls-5{stroke:#0e8a16;}.cls-1,.cls-3,.cls-5{stroke-linecap:round;stroke-linejoin:round;}.cls-1{stroke-width:7px;}.cls-2{fill:#f9fbed;}.cls-2,.cls-4{stroke-miterlimit:10;}.cls-2,.cls-3,.cls-4,.cls-5{stroke-width:1.74px;}.cls-4{fill:#fff;}.cls-5{fill:none;}</style><symbol id="leaves" data-name="leaves" viewBox="0 0 48.3 26.33"><path class="cls-1" d="M40.15,18.18C34.83,23.5,25.5,22.8,25.5,22.8s-.7-9.33,4.62-14.65S44.77,3.53,44.77,3.53,45.47,12.86,40.15,18.18Z"/><path class="cls-1" d="M8.15,18.18C13.47,23.5,22.8,22.8,22.8,22.8s.7-9.33-4.62-14.65S3.53,3.53,3.53,3.53,2.83,12.86,8.15,18.18Z"/></symbol></defs><title>Artboard 2</title><g id="challenge"><circle class="cls-2" cx="50.24" cy="50.01" r="46.67"/><polygon class="cls-3" points="35.49 25.99 64.99 25.99 71.48 34.32 29.01 34.32 35.49 25.99"/><polygon class="cls-3" points="51.59 61.4 64.99 25.99 71.48 34.32 55.53 63.32 51.59 61.4"/><polygon class="cls-3" points="48.89 61.4 35.49 25.99 29.01 34.32 44.95 63.32 48.89 61.4"/><circle class="cls-4" cx="50.24" cy="64.85" r="9.19"/><circle class="cls-4" cx="50.24" cy="64.85" r="6.5"/><path class="cls-5" d="M77.81,41.64A28.67,28.67,0,0,1,63.43,75.81"/><use width="48.3" height="26.33" transform="matrix(0.31, 0.08, -0.08, 0.31, 71.16, 52.51)" xlink:href="#leaves"/><use width="48.3" height="26.33" transform="translate(70.84 42.79) rotate(-5.23) scale(0.32)" xlink:href="#leaves"/><use width="48.3" height="26.33" transform="translate(68.03 61.63) rotate(39.75) scale(0.32)" xlink:href="#leaves"/><path class="cls-5" d="M22.68,41.64A28.67,28.67,0,0,0,37.06,75.81"/><use width="48.3" height="26.33" transform="matrix(-0.31, 0.08, 0.08, 0.31, 29.33, 52.51)" xlink:href="#leaves"/><use width="48.3" height="26.33" transform="matrix(-0.32, -0.03, -0.03, 0.32, 29.65, 42.79)" xlink:href="#leaves"/><use width="48.3" height="26.33" transform="matrix(-0.24, 0.2, 0.2, 0.24, 32.46, 61.63)" xlink:href="#leaves"/></g></svg>