<svg xmlns="http://www.w3.org/2000/svg" viewBox="0 0 100 100"><defs><style>.cls-1{fill:#f9fbed;stroke-miterlimit:10;}.cls-1,.cls-2{stroke:#0e8a16;stroke-width:1.74px;}.cls-2{fill:#cdde54;stroke-linejoin:round;}.cls-3{fill:#0e8a16;}</style></defs><title>Artboard 2</title><g id="definition"><circle class="cls-1" cx="50" cy="50.01" r="46.67"/><path class="cls-2" d="M27.66,39.38l7.84,21H30.71l-1.58-4.68H21.28l-1.65,4.68H15l7.93-21Zm.26,12.87-2.65-7.7h-.05l-2.74,7.7Z"/><path class="cls-3" d="M48.17,49V51.1H45.88v5.62A1.07,1.07,0,0,0,47.2,58l.51,0,.46-.07v2.42a7.56,7.56,0,0,1-.88.08l-.95,0a9.91,9.91,0,0,1-1.37-.1A3.34,3.34,0,0,1,43.83,60a2,2,0,0,1-.78-.81,2.89,2.89,0,0,1-.29-1.38V51.1H40.87V49h1.89v-3.4h3.12V49Z"/><path class="cls-3" d="M49.73,52.23a5.23,5.23,0,0,1,1.18-1.89,5.35,5.35,0,0,1,1.85-1.21,6.55,6.55,0,0,1,2.41-.43,6.66,6.66,0,0,1,2.43.43,5.4,5.4,0,0,1,1.86,1.21,5.23,5.23,0,0,1,1.18,1.89,6.92,6.92,0,0,1,.42,2.47,6.82,6.82,0,0,1-.42,2.46A5.27,5.27,0,0,1,59.46,59a5.08,5.08,0,0,1-1.86,1.19,6.66,6.66,0,0,1-2.43.42,6.55,6.55,0,0,1-2.41-.42A5,5,0,0,1,50.91,59a5.27,5.27,0,0,1-1.18-1.88,6.82,6.82,0,0,1-.42-2.46A6.92,6.92,0,0,1,49.73,52.23ZM52.56,56A3.6,3.6,0,0,0,53,57.19a2.33,2.33,0,0,0,.85.83,2.62,2.62,0,0,0,1.31.3A2.7,2.7,0,0,0,56.5,58a2.36,2.36,0,0,0,.86-.83A3.6,3.6,0,0,0,57.81,56a6.52,6.52,0,0,0,.13-1.33,6.69,6.69,0,0,0-.13-1.34,3.43,3.43,0,0,0-.45-1.16,2.45,2.45,0,0,0-.86-.83,2.59,2.59,0,0,0-1.33-.32,2.52,2.52,0,0,0-1.31.32,2.42,2.42,0,0,0-.85.83,3.43,3.43,0,0,0-.45,1.16,6.69,6.69,0,0,0-.13,1.34A6.52,6.52,0,0,0,52.56,56Z"/><path class="cls-2" d="M79.27,43.26H68.9V39.38H85.42V43L74.16,56.49H85.71v3.88H68V56.72Z"/></g></svg>