<svg xmlns="http://www.w3.org/2000/svg" viewBox="0 0 100 100"><defs><style>.cls-1{fill:#f9fbed;}.cls-1,.cls-2,.cls-3,.cls-4{stroke:#0e8a16;stroke-width:1.74px;}.cls-1,.cls-3,.cls-4{stroke-miterlimit:10;}.cls-2,.cls-3{fill:#cdde54;}.cls-2{stroke-linejoin:round;}.cls-4{fill:none;stroke-linecap:round;}</style></defs><title>Artboard 2</title><g id="discoverMore"><circle class="cls-1" cx="50.24" cy="50" r="46.67"/><rect class="cls-2" x="59.32" y="52.24" width="2.79" height="16.39" transform="translate(-24.95 60.63) rotate(-45)"/><circle class="cls-3" cx="46.35" cy="46.07" r="14.87"/><circle class="cls-1" cx="46.35" cy="46.07" r="10.97"/><rect class="cls-2" x="64.01" y="58.34" width="5.61" height="16.39" transform="translate(-27.48 66.73) rotate(-45)"/><line class="cls-4" x1="42.74" y1="51.15" x2="46.17" y2="42.56"/><line class="cls-4" x1="40.44" y1="46.26" x2="43.53" y2="38.52"/><line class="cls-4" x1="26.12" y1="54.73" x2="27.79" y2="54.01"/><line class="cls-4" x1="64.77" y1="38.14" x2="66.45" y2="37.42"/><line class="cls-4" x1="38.14" y1="66.45" x2="38.82" y2="64.76"/><line class="cls-4" x1="53.74" y1="27.39" x2="54.42" y2="25.69"/><line class="cls-4" x1="54.94" y1="66.24" x2="54.22" y2="64.56"/><line class="cls-4" x1="38.35" y1="27.58" x2="37.63" y2="25.91"/><line class="cls-4" x1="66.66" y1="54.21" x2="64.97" y2="53.53"/><line class="cls-4" x1="27.6" y1="38.61" x2="25.9" y2="37.93"/></g></svg>