<svg xmlns="http://www.w3.org/2000/svg" viewBox="0 0 100 100"><defs><style>.cls-1{fill:#f9fbed;stroke-miterlimit:10;}.cls-1,.cls-3,.cls-4{stroke:#0e8a16;stroke-width:1.74px;}.cls-2,.cls-4{fill:#cdde54;}.cls-3{fill:none;}.cls-3,.cls-4{stroke-linecap:round;stroke-linejoin:round;}.cls-5{fill:#0e8a16;}</style></defs><title>Artboard 2</title><g id="formula"><circle class="cls-1" cx="49.65" cy="50" r="46.67"/><path class="cls-2" d="M64.18,62.25A34.25,34.25,0,0,1,29.91,28l0,41.73H64.18Z"/><line class="cls-3" x1="29.94" y1="25.31" x2="29.94" y2="74.69"/><line class="cls-3" x1="74.35" y1="69.71" x2="24.96" y2="69.71"/><path class="cls-3" d="M29.91,28A34.25,34.25,0,0,0,64.18,62.25"/><polygon class="cls-4" points="69.09 62.25 64.18 66.42 64.18 58.08 69.09 62.25"/><path class="cls-5" d="M46.81,39.59l.26-1.22h1.09a10.15,10.15,0,0,1,.28-1.12,2.39,2.39,0,0,1,.42-.81,1.67,1.67,0,0,1,.71-.5,3.38,3.38,0,0,1,1.16-.17l.6,0a5.59,5.59,0,0,1,.59.08l-.28,1.3-.29,0h-.3a1.2,1.2,0,0,0-.52.08.6.6,0,0,0-.28.24,1.76,1.76,0,0,0-.15.39q0,.22-.12.51h1.29L51,39.59h-1.3L48.57,45H46.75l1.14-5.41Z"/><path class="cls-5" d="M54.6,37.75a11.09,11.09,0,0,0-.9,2,10.92,10.92,0,0,0-.49,2A15.09,15.09,0,0,0,53.06,44a9.54,9.54,0,0,0,.15,1.68c.1.55.21,1.11.34,1.68H52.17a7.11,7.11,0,0,1-.33-.93c-.1-.36-.18-.72-.25-1.1s-.12-.76-.16-1.12a8.76,8.76,0,0,1-.06-.94A10.71,10.71,0,0,1,51.58,41a9.13,9.13,0,0,1,.59-1.9,11.44,11.44,0,0,1,.94-1.75c.38-.57.81-1.16,1.28-1.76H56A18.35,18.35,0,0,0,54.6,37.75Z"/><path class="cls-5" d="M60.56,45H58.63l-1-2.18L55.91,45h-2l3.06-3.55-1.5-3.08h1.95l.73,1.91,1.49-1.91h2l-2.75,3.18Z"/><path class="cls-5" d="M61.45,45.22a12.21,12.21,0,0,0,.89-2,10.92,10.92,0,0,0,.49-2A15,15,0,0,0,63,39a9.54,9.54,0,0,0-.15-1.68c-.1-.56-.21-1.12-.34-1.69h1.38a8.52,8.52,0,0,1,.32.94c.1.36.18.73.25,1.11s.12.75.16,1.1a7,7,0,0,1,.07.95,10.57,10.57,0,0,1-.21,2.19,9.13,9.13,0,0,1-.59,1.9,11.12,11.12,0,0,1-1,1.75c-.37.57-.8,1.15-1.27,1.75H60.06A19.44,19.44,0,0,0,61.45,45.22Z"/></g></svg>