<svg xmlns="http://www.w3.org/2000/svg" viewBox="0 0 100 100"><defs><style>.cls-1{fill:#f9fbed;stroke-miterlimit:10;}.cls-1,.cls-2{stroke:#0e8a16;stroke-width:1.74px;}.cls-2{fill:#cdde54;stroke-linejoin:round;}</style></defs><title>Artboard 2</title><g id="globalCompetencies"><circle class="cls-1" cx="50" cy="50.01" r="46.67"/><path class="cls-2" d="M43.91,33.62a4.64,4.64,0,0,1,4.16,2.59H50V26.44H26.4V50.06h9.77V52a4.63,4.63,0,1,0,4.07,0V50.06H50V40.29H48.07a4.63,4.63,0,1,1-4.16-6.67Z"/><path class="cls-2" d="M33.57,56.07a4.61,4.61,0,0,1,2.6-4.15V50H26.4V73.59H50V63.81H52a4.63,4.63,0,1,0,0-4.07H50V50H40.24v2a4.63,4.63,0,1,1-6.67,4.15Z"/><path class="cls-2" d="M56.09,66.41a4.63,4.63,0,0,1-4.16-2.6H50v9.78H73.6V50H63.83V48a4.63,4.63,0,1,0-4.07,0V50H50v9.77h1.94a4.63,4.63,0,1,1,4.16,6.67Z"/><path class="cls-2" d="M66.43,44a4.61,4.61,0,0,1-2.6,4.15v2H73.6V26.44H50v9.77H48.05a4.63,4.63,0,1,0,0,4.08H50v9.77h9.77v-2A4.63,4.63,0,1,1,66.43,44Z"/></g></svg>