<svg xmlns="http://www.w3.org/2000/svg" viewBox="0 0 100 100"><defs><style>.cls-1{fill:#f9fbed;stroke:#0e8a16;stroke-miterlimit:10;stroke-width:1.74px;}.cls-2{fill:#0e8a16;}</style></defs><title>Artboard 2</title><g id="learningLog"><circle class="cls-1" cx="50.24" cy="50.01" r="46.67"/><path class="cls-2" d="M18.62,34.9v9.79h5.86v2.22H16v-12Z"/><path class="cls-2" d="M28.26,44.83a2.18,2.18,0,0,0,1.55.52A2.11,2.11,0,0,0,31.05,45a1.5,1.5,0,0,0,.64-.77h2.1a4,4,0,0,1-1.54,2.24,4.57,4.57,0,0,1-2.53.67,5,5,0,0,1-1.85-.33,4,4,0,0,1-1.39-.93,4.09,4.09,0,0,1-.88-1.45,5.2,5.2,0,0,1-.32-1.85,5.1,5.1,0,0,1,.32-1.81,4.45,4.45,0,0,1,.91-1.46,4.27,4.27,0,0,1,1.41-1,4.55,4.55,0,0,1,1.8-.35,4.11,4.11,0,0,1,1.94.43A3.87,3.87,0,0,1,33,39.56a4.64,4.64,0,0,1,.77,1.65A6.5,6.5,0,0,1,34,43.14H27.67A2.45,2.45,0,0,0,28.26,44.83ZM31,40.25a1.69,1.69,0,0,0-1.3-.47,2.2,2.2,0,0,0-.95.19,1.76,1.76,0,0,0-.61.48,1.79,1.79,0,0,0-.32.61,2.7,2.7,0,0,0-.11.57h3.89A2.76,2.76,0,0,0,31,40.25Z"/><path class="cls-2" d="M35.26,40.89a2.72,2.72,0,0,1,.42-1.4,2.86,2.86,0,0,1,.94-.89,4.31,4.31,0,0,1,1.29-.48A7.62,7.62,0,0,1,39.34,38a10,10,0,0,1,1.33.09,4.3,4.3,0,0,1,1.23.37,2.35,2.35,0,0,1,.91.74,2.14,2.14,0,0,1,.35,1.27V45a8,8,0,0,0,.07,1.12,1.85,1.85,0,0,0,.24.81H41c0-.13-.08-.27-.11-.41s0-.28,0-.43a3.22,3.22,0,0,1-1.35.83,5.64,5.64,0,0,1-1.58.23A4.28,4.28,0,0,1,36.79,47a2.68,2.68,0,0,1-.94-.47,2.12,2.12,0,0,1-.63-.81,3,3,0,0,1,0-2.38,2.15,2.15,0,0,1,.67-.76,3,3,0,0,1,.94-.43,10.22,10.22,0,0,1,1.07-.23c.36-.06.71-.1,1.06-.13a6.87,6.87,0,0,0,.93-.16,1.52,1.52,0,0,0,.64-.29.64.64,0,0,0,.21-.56,1.34,1.34,0,0,0-.12-.62,1,1,0,0,0-.34-.35,1.42,1.42,0,0,0-.49-.17,3.65,3.65,0,0,0-.59,0,1.83,1.83,0,0,0-1.11.3,1.33,1.33,0,0,0-.47,1Zm5.51,1.77a1,1,0,0,1-.37.21,3.89,3.89,0,0,1-.49.12c-.18,0-.36.06-.55.09l-.57.08a3.18,3.18,0,0,0-.53.14,1.45,1.45,0,0,0-.45.22,1.22,1.22,0,0,0-.32.36,1.33,1.33,0,0,0-.11.56,1.27,1.27,0,0,0,.11.54,1,1,0,0,0,.32.34,1.26,1.26,0,0,0,.48.18,3.21,3.21,0,0,0,.55,0,2,2,0,0,0,1.09-.24,1.56,1.56,0,0,0,.58-.56,1.9,1.9,0,0,0,.22-.66,4.26,4.26,0,0,0,0-.54Z"/><path class="cls-2" d="M47.28,38.22v1.61h0a2.88,2.88,0,0,1,.45-.75,3.1,3.1,0,0,1,.66-.59,3.17,3.17,0,0,1,.79-.37,2.83,2.83,0,0,1,.87-.14,1.72,1.72,0,0,1,.52.09v2.22a2,2,0,0,0-.4-.06l-.45,0a2.47,2.47,0,0,0-1.11.22,1.91,1.91,0,0,0-.74.6,2.44,2.44,0,0,0-.39.88A4.73,4.73,0,0,0,47.4,43v3.92H45V38.22Z"/><path class="cls-2" d="M54.13,38.22v1.21h0a2.66,2.66,0,0,1,1.18-1.1A3.38,3.38,0,0,1,56.84,38a4.15,4.15,0,0,1,1.57.26,2.42,2.42,0,0,1,1,.73,2.73,2.73,0,0,1,.49,1.12A6.8,6.8,0,0,1,60,41.56v5.35H57.63V42a3.11,3.11,0,0,0-.34-1.61,1.3,1.3,0,0,0-1.19-.53,1.66,1.66,0,0,0-1.42.59,3.21,3.21,0,0,0-.43,1.9v4.56H51.86V38.22Z"/><path class="cls-2" d="M61.9,36.87v-2h2.39v2Zm2.39,1.35v8.69H61.9V38.22Z"/><path class="cls-2" d="M68.44,38.22v1.21h0a2.71,2.71,0,0,1,1.18-1.1A3.38,3.38,0,0,1,71.15,38a4.11,4.11,0,0,1,1.57.26,2.42,2.42,0,0,1,1,.73,2.73,2.73,0,0,1,.49,1.12,6.78,6.78,0,0,1,.15,1.47v5.35H71.94V42a3,3,0,0,0-.34-1.61,1.3,1.3,0,0,0-1.19-.53,1.64,1.64,0,0,0-1.41.59,3.13,3.13,0,0,0-.44,1.9v4.56H66.17V38.22Z"/><path class="cls-2" d="M84.36,47.55a3,3,0,0,1-.61,1.25,3.68,3.68,0,0,1-1.37,1,5.85,5.85,0,0,1-2.39.4,5.38,5.38,0,0,1-1.3-.16,4,4,0,0,1-1.21-.49,3.15,3.15,0,0,1-.91-.87,2.49,2.49,0,0,1-.41-1.27h2.37a1.33,1.33,0,0,0,.66.93,2.26,2.26,0,0,0,1.12.26,1.75,1.75,0,0,0,1.48-.6,2.45,2.45,0,0,0,.44-1.53V45.31h0a2.41,2.41,0,0,1-1.1,1,3.57,3.57,0,0,1-1.51.33,3.79,3.79,0,0,1-1.68-.35,3.06,3.06,0,0,1-1.16-.94A3.91,3.91,0,0,1,76.08,44a6.69,6.69,0,0,1-.21-1.69,5.6,5.6,0,0,1,.25-1.63,4.3,4.3,0,0,1,.71-1.38,3.74,3.74,0,0,1,1.17-1A3.6,3.6,0,0,1,79.61,38a3.38,3.38,0,0,1,1.5.32,2.57,2.57,0,0,1,1.09,1.08h0V38.22H84.5v8.14A6.23,6.23,0,0,1,84.36,47.55Zm-3.27-2.89a2,2,0,0,0,.64-.54,2.41,2.41,0,0,0,.38-.77,3.26,3.26,0,0,0,.12-.9,4.74,4.74,0,0,0-.1-1,2.48,2.48,0,0,0-.34-.85,1.67,1.67,0,0,0-.62-.59,1.91,1.91,0,0,0-1-.22,1.8,1.8,0,0,0-.87.2,1.86,1.86,0,0,0-.6.55,2.11,2.11,0,0,0-.36.79,4.08,4.08,0,0,0-.11.93,4.91,4.91,0,0,0,.09.94,2.76,2.76,0,0,0,.32.83,1.81,1.81,0,0,0,.6.6,1.69,1.69,0,0,0,.93.24A2,2,0,0,0,81.09,44.66Z"/><path class="cls-2" d="M38.71,49.84v9.79h5.85v2.22h-8.5v-12Z"/><path class="cls-2" d="M45.84,55.61a4.09,4.09,0,0,1,.9-1.44,4.17,4.17,0,0,1,1.42-.93A4.92,4.92,0,0,1,50,52.92a5,5,0,0,1,1.86.32,4.17,4.17,0,0,1,1.42.93,4.26,4.26,0,0,1,.91,1.44,5.45,5.45,0,0,1,.31,1.9,5.34,5.34,0,0,1-.31,1.88,4.26,4.26,0,0,1-.91,1.44,4.15,4.15,0,0,1-1.42.92,5.26,5.26,0,0,1-1.86.31,5.13,5.13,0,0,1-1.85-.31,4.15,4.15,0,0,1-1.42-.92,4.09,4.09,0,0,1-.9-1.44,5.12,5.12,0,0,1-.32-1.88A5.23,5.23,0,0,1,45.84,55.61ZM48,58.52a2.63,2.63,0,0,0,.34.9,1.87,1.87,0,0,0,.65.63,2,2,0,0,0,1,.23,2.07,2.07,0,0,0,1-.23,1.82,1.82,0,0,0,.66-.63,2.86,2.86,0,0,0,.35-.9,5.67,5.67,0,0,0,.1-1,5.89,5.89,0,0,0-.1-1,2.72,2.72,0,0,0-.35-.89A1.82,1.82,0,0,0,51,55a2,2,0,0,0-1-.25A1.94,1.94,0,0,0,49,55a1.87,1.87,0,0,0-.65.63,2.5,2.5,0,0,0-.34.89,5.07,5.07,0,0,0-.1,1A4.87,4.87,0,0,0,48,58.52Z"/><path class="cls-2" d="M64.28,62.49a3,3,0,0,1-.62,1.25,3.54,3.54,0,0,1-1.36,1,5.84,5.84,0,0,1-2.39.41,5.92,5.92,0,0,1-1.3-.16,4.34,4.34,0,0,1-1.21-.5,2.8,2.8,0,0,1-.91-.87,2.46,2.46,0,0,1-.41-1.27h2.37a1.37,1.37,0,0,0,.66.94,2.37,2.37,0,0,0,1.12.26,1.7,1.7,0,0,0,1.47-.61,2.36,2.36,0,0,0,.45-1.53V60.25h0a2.41,2.41,0,0,1-1.1,1,3.72,3.72,0,0,1-1.51.32,3.79,3.79,0,0,1-1.68-.34,3.15,3.15,0,0,1-1.16-.94,3.87,3.87,0,0,1-.67-1.4,6.58,6.58,0,0,1-.21-1.69A5.18,5.18,0,0,1,56,55.6a4.3,4.3,0,0,1,.71-1.38,3.4,3.4,0,0,1,2.78-1.3,3.38,3.38,0,0,1,1.5.31,2.69,2.69,0,0,1,1.09,1.08h0V53.15h2.27v8.14A6.24,6.24,0,0,1,64.28,62.49ZM61,59.59a1.85,1.85,0,0,0,.64-.54,2.44,2.44,0,0,0,.37-.76,3,3,0,0,0,.13-.9,4.77,4.77,0,0,0-.1-1,2.57,2.57,0,0,0-.34-.85,1.76,1.76,0,0,0-.62-.59,2,2,0,0,0-1-.22,1.7,1.7,0,0,0-.87.21,1.85,1.85,0,0,0-.61.54,2.35,2.35,0,0,0-.35.79,4.1,4.1,0,0,0-.11.94,4.88,4.88,0,0,0,.09.93,2.66,2.66,0,0,0,.32.83,1.84,1.84,0,0,0,.6.61,1.69,1.69,0,0,0,.93.23A1.85,1.85,0,0,0,61,59.59Z"/></g></svg>