<svg xmlns="http://www.w3.org/2000/svg" viewBox="0 0 100 100"><defs><style>.cls-1{fill:#f9fbed;stroke-miterlimit:10;}.cls-1,.cls-2,.cls-3{stroke:#0e8a16;stroke-width:1.74px;}.cls-2{fill:#cdde54;}.cls-2,.cls-3{stroke-linecap:round;stroke-linejoin:round;}.cls-3{fill:none;}</style></defs><title>Artboard 2</title><g id="listen"><circle class="cls-1" cx="50" cy="50.01" r="46.67"/><path class="cls-2" d="M66.67,50.23a2.16,2.16,0,0,1-2.16-2.16V43.38a14.55,14.55,0,0,0-29.09,0v4.69a2.16,2.16,0,1,1-4.31,0V43.38a18.86,18.86,0,0,1,37.71,0v4.69A2.16,2.16,0,0,1,66.67,50.23Z"/><path class="cls-2" d="M65.91,44.94h1.81a8.8,8.8,0,0,1,8.8,8.8v3a8.8,8.8,0,0,1-8.8,8.8H65.91a3,3,0,0,1-3-3V47.92A3,3,0,0,1,65.91,44.94Z"/><path class="cls-2" d="M26.47,44.94h1.81a8.8,8.8,0,0,1,8.8,8.8v3a8.8,8.8,0,0,1-8.8,8.8H26.47a3,3,0,0,1-3-3V47.92a3,3,0,0,1,3-3Z" transform="translate(60.57 110.48) rotate(-180)"/><line class="cls-3" x1="16.46" y1="55.07" x2="18.97" y2="55.07"/><line class="cls-3" x1="81.12" y1="55.07" x2="83.63" y2="55.07"/><line class="cls-3" x1="18.49" y1="43.59" x2="20.84" y2="44.44"/><line class="cls-3" x1="79.25" y1="65.7" x2="81.6" y2="66.56"/><line class="cls-3" x1="18.49" y1="66.56" x2="20.84" y2="65.7"/><line class="cls-3" x1="79.25" y1="44.44" x2="81.6" y2="43.59"/></g></svg>