<svg xmlns="http://www.w3.org/2000/svg" viewBox="0 0 100 100"><defs><style>.cls-1{fill:#f9fbed;stroke-miterlimit:10;}.cls-1,.cls-2,.cls-3,.cls-4{stroke:#0e8a16;stroke-width:1.74px;}.cls-2{fill:#cdde54;}.cls-2,.cls-3,.cls-4{stroke-linejoin:round;}.cls-3{fill:none;}.cls-4{fill:#fff;}</style></defs><title>Artboard 2</title><g id="notebook"><circle class="cls-1" cx="50" cy="50" r="46.67"/><path class="cls-2" d="M39.24,28.64H71.72A3.38,3.38,0,0,1,75.1,32V70.3a3.38,3.38,0,0,1-3.38,3.38H39.24a0,0,0,0,1,0,0v-45A0,0,0,0,1,39.24,28.64Z"/><line class="cls-3" x1="68.08" y1="28.64" x2="68.08" y2="73.68"/><polygon class="cls-4" points="49.79 36.31 47.01 34.02 44.23 36.31 44.23 26.32 49.79 26.32 49.79 36.31"/><rect class="cls-2" x="15.16" y="43.31" width="27.45" height="7.97" transform="translate(-18.41 76.18) rotate(-90)"/><polygon class="cls-4" points="32.87 61.02 28.88 68.75 24.9 61.02 32.87 61.02"/></g></svg>