<svg xmlns="http://www.w3.org/2000/svg" viewBox="0 0 100 100"><defs><style>.cls-1{fill:#f9fbed;stroke-miterlimit:10;}.cls-1,.cls-2{stroke:#0e8a16;stroke-width:1.74px;}.cls-2{fill:#cdde54;stroke-linecap:round;stroke-linejoin:round;}</style></defs><title>Artboard 2</title><g id="portfolio"><circle class="cls-1" cx="50.24" cy="50.01" r="46.67"/><path class="cls-2" d="M57,38a1.87,1.87,0,0,1-1.87-1.87v-4H45.37v4a1.87,1.87,0,1,1-3.73,0V30.29a1.87,1.87,0,0,1,1.86-1.87H57a1.87,1.87,0,0,1,1.87,1.87v5.87A1.87,1.87,0,0,1,57,38Z"/><rect class="cls-2" x="24.22" y="36.16" width="52.04" height="35.45" rx="3.01"/><rect class="cls-2" x="24.22" y="36.16" width="52.04" height="14.53" rx="3.01"/><rect class="cls-2" x="43.82" y="47.58" width="12.84" height="6.23"/></g></svg>