<svg xmlns="http://www.w3.org/2000/svg" viewBox="0 0 100 100"><defs><style>.cls-1{fill:#f9fbed;stroke-miterlimit:10;}.cls-1,.cls-2,.cls-3,.cls-4{stroke:#0e8a16;stroke-width:1.74px;}.cls-2{fill:#cdde54;}.cls-2,.cls-3,.cls-4{stroke-linejoin:round;}.cls-3{fill:#fff;}.cls-4{fill:none;stroke-linecap:round;}</style></defs><title>Artboard 2</title><g id="readerJournal"><circle class="cls-1" cx="50" cy="50" r="46.67"/><rect class="cls-2" x="30.7" y="23.28" width="38.73" height="50.94" rx="4.71"/><path class="cls-3" d="M32.15,30.29H68a1.23,1.23,0,0,1,1.23,1.23V60.57A1.23,1.23,0,0,1,68,61.79H32.15a1.22,1.22,0,0,1-1.22-1.22V31.51A1.23,1.23,0,0,1,32.15,30.29Z" transform="translate(96.11 -4.02) rotate(90)"/><circle class="cls-2" cx="50.06" cy="69.65" r="1.94"/><line class="cls-4" x1="41.97" y1="37.65" x2="58.16" y2="37.65"/><line class="cls-4" x1="41.97" y1="46.04" x2="58.16" y2="46.04"/><line class="cls-4" x1="41.97" y1="54.43" x2="53.18" y2="54.43"/><rect class="cls-2" x="55" y="35.15" width="27.45" height="7.97" transform="translate(-7.55 60.06) rotate(-45)"/><polygon class="cls-3" points="61.84 51.66 53.55 54.31 56.2 46.03 61.84 51.66"/></g></svg>