<svg xmlns="http://www.w3.org/2000/svg" viewBox="0 0 100 100"><defs><style>.cls-1{fill:#f9fbed;stroke-miterlimit:10;}.cls-1,.cls-2,.cls-3,.cls-4{stroke:#0e8a16;stroke-width:1.74px;}.cls-2{fill:#cdde54;}.cls-2,.cls-3,.cls-4{stroke-linecap:round;stroke-linejoin:round;}.cls-3{fill:#fff;}.cls-4{fill:none;}</style></defs><title>Artboard 2</title><g id="readIt"><circle class="cls-1" cx="50.24" cy="49.53" r="46.67"/><rect class="cls-2" x="20.08" y="30.22" width="60.15" height="38.53" rx="2.12"/><path class="cls-3" d="M75.63,27.06h-21a4.4,4.4,0,0,0-4.4,4.41V68.19c0-2.43,2-3.7,4.4-3.7h21a1.78,1.78,0,0,0,1.78-1.77V28.84A1.78,1.78,0,0,0,75.63,27.06Z"/><path class="cls-3" d="M24.84,27.06h21a4.4,4.4,0,0,1,4.41,4.41V68.19c0-3-2.9-3.7-4.41-3.7h-21a1.77,1.77,0,0,1-1.77-1.77V28.84A1.78,1.78,0,0,1,24.84,27.06Z"/><polygon class="cls-2" points="33.2 35.21 30.84 32.76 28.47 35.21 28.47 25.55 33.2 25.55 33.2 35.21"/><line class="cls-4" x1="56.81" y1="38.42" x2="71.93" y2="38.42"/><line class="cls-4" x1="56.81" y1="45.46" x2="71.93" y2="45.46"/><line class="cls-4" x1="56.81" y1="52.51" x2="71.93" y2="52.51"/><line class="cls-4" x1="28.63" y1="38.42" x2="43.74" y2="38.42"/><line class="cls-4" x1="28.63" y1="45.46" x2="43.74" y2="45.46"/><line class="cls-4" x1="28.63" y1="52.51" x2="43.74" y2="52.51"/></g></svg>