<svg xmlns="http://www.w3.org/2000/svg" viewBox="0 0 100 100"><defs><style>.cls-1{fill:#f9fbed;stroke-miterlimit:10;}.cls-1,.cls-2,.cls-3,.cls-4,.cls-5{stroke:#0e8a16;stroke-width:1.74px;}.cls-2{fill:#cdde54;}.cls-2,.cls-3,.cls-4,.cls-5{stroke-linejoin:round;}.cls-3,.cls-5{fill:none;}.cls-4{fill:#fff;}.cls-5{stroke-linecap:round;}</style></defs><title>Artboard 2</title><g id="review"><circle class="cls-1" cx="50.24" cy="50.01" r="46.67"/><path class="cls-2" d="M32.31,22.7H64.8a3.38,3.38,0,0,1,3.38,3.38V64.36a3.38,3.38,0,0,1-3.38,3.38H32.31a0,0,0,0,1,0,0v-45A0,0,0,0,1,32.31,22.7Z"/><line class="cls-3" x1="61.16" y1="22.7" x2="61.16" y2="67.74"/><polygon class="cls-4" points="42.86 30.38 40.08 28.09 37.31 30.38 37.31 20.38 42.86 20.38 42.86 30.38"/><path class="cls-5" d="M41,73.88H57.58c2,0,3.64,1.29,3.64,2.88h0c0,1.6-1.63,2.89-3.64,2.89H55"/><polygon class="cls-2" points="43.45 77.02 39.27 73.88 43.45 70.73 43.45 77.02"/></g></svg>