<svg xmlns="http://www.w3.org/2000/svg" viewBox="0 0 100 100"><defs><style>.cls-1{fill:#f9fbed;stroke-miterlimit:10;}.cls-1,.cls-2,.cls-3{stroke:#0e8a16;stroke-width:1.74px;}.cls-2{fill:#cdde54;}.cls-2,.cls-3{stroke-linejoin:round;}.cls-3{fill:none;stroke-linecap:round;}</style></defs><title>Artboard 2</title><g id="sayItAloud"><circle class="cls-1" cx="50.24" cy="50.01" r="46.67"/><path class="cls-2" d="M43.79,70.85A9.39,9.39,0,1,1,49.3,58.77,9.39,9.39,0,0,1,43.79,70.85Zm-5.3-14.17a5.74,5.74,0,1,0,7.39,3.37A5.76,5.76,0,0,0,38.49,56.68Z"/><polygon class="cls-2" points="65.62 61.25 26.02 64.7 22.33 54.83 54.48 31.45 65.62 61.25"/><rect class="cls-2" x="56.63" y="28.03" width="6.83" height="36.63" rx="2.15" transform="translate(-12.43 23.97) rotate(-20.5)"/><rect class="cls-2" x="21.83" y="51.78" width="5.44" height="15.68" rx="1.89" transform="translate(-19.33 12.38) rotate(-20.5)"/><line class="cls-3" x1="70.76" y1="42.34" x2="78.48" y2="39.45"/><line class="cls-3" x1="72.48" y1="52.99" x2="80.72" y2="53.28"/><line class="cls-3" x1="65.07" y1="33.18" x2="71.1" y2="27.55"/></g></svg>