<svg xmlns="http://www.w3.org/2000/svg" viewBox="0 0 100 100"><defs><style>.cls-1{fill:#f9fbed;stroke-miterlimit:10;}.cls-1,.cls-2,.cls-3,.cls-4{stroke:#0e8a16;stroke-width:1.74px;}.cls-2{fill:#fff;}.cls-2,.cls-3,.cls-4{stroke-linejoin:round;}.cls-3{fill:none;}.cls-3,.cls-4{stroke-linecap:round;}.cls-4{fill:#cdde54;}</style></defs><title>Artboard 2</title><g id="selfCheck"><circle class="cls-1" cx="50" cy="50" r="46.67"/><rect class="cls-2" x="31.33" y="25.45" width="37.33" height="49.1"/><line class="cls-3" x1="37.68" y1="36.21" x2="52.36" y2="36.21"/><line class="cls-3" x1="37.68" y1="46.17" x2="52.36" y2="46.17"/><line class="cls-3" x1="37.68" y1="56.12" x2="52.36" y2="56.12"/><path class="cls-4" d="M70.68,64.88a2.38,2.38,0,0,0-2.25,2.49V65.88a2.27,2.27,0,1,0-4.51,0v-1a2.27,2.27,0,1,0-4.51,0V54.43a2.27,2.27,0,1,0-4.52,0V72l-3.27-3.87a2.23,2.23,0,0,0-3.29-.2,2.82,2.82,0,0,0-.24,3.7s5.3,6.75,7.53,8.87S59.86,83,63.34,83H64.5c4.66,0,8.44-2.68,8.44-7.82V67.37A2.39,2.39,0,0,0,70.68,64.88Z"/><line class="cls-3" x1="59.41" y1="64.88" x2="59.41" y2="67.78"/><line class="cls-3" x1="63.92" y1="65.88" x2="63.92" y2="68.81"/><line class="cls-3" x1="68.43" y1="67.37" x2="68.43" y2="69.44"/><polyline class="cls-3" points="56.34 43.24 59.26 46.16 65.1 40.32"/></g></svg>