<svg id="think" xmlns="http://www.w3.org/2000/svg" viewBox="0 0 100 100"><defs><style>.cls-1{fill:#f9fbed;stroke-miterlimit:10;}.cls-1,.cls-2,.cls-3{stroke:#0e8a16;stroke-width:1.74px;}.cls-2{fill:#cdde54;}.cls-2,.cls-3{stroke-linecap:round;stroke-linejoin:round;}.cls-3{fill:none;}</style></defs><title>Artboard 2</title><circle class="cls-1" cx="50" cy="50" r="46.67"/><path class="cls-2" d="M73.08,42.89c0-12.3-9.65-22.26-21.56-22.26-11.66,0-21.15,9.56-21.54,21.49h0v4l-3,9.12a.86.86,0,0,0,.75,1.14l4.35.35.61,7.6a4.26,4.26,0,0,0,4.72,4l5.73-.71v9.31H62.9V61.79A22.42,22.42,0,0,0,73.08,42.89Z"/><path class="cls-3" d="M64.79,42.91a13,13,0,0,0,.36-2.74l-3-1.59a10.09,10.09,0,0,0-.46-2.06l2.18-2.42a13.06,13.06,0,0,0-1.59-2.54l-3.34.72a9.5,9.5,0,0,0-1.31-1l.12-3.31a12.58,12.58,0,0,0-3-1l-2.07,2.66q-.37,0-.75,0t-.75,0L49.14,26.9a12.58,12.58,0,0,0-3,1l.12,3.31a10.24,10.24,0,0,0-1.32,1l-3.33-.72a13.06,13.06,0,0,0-1.59,2.54l2.18,2.42a10.09,10.09,0,0,0-.46,2.06l-3,1.59a13.7,13.7,0,0,0,.37,2.74l3.2.45a10.27,10.27,0,0,0,1.22,2.32l-1.26,3.11a13.35,13.35,0,0,0,1.91,1.69L47,48.75a10.07,10.07,0,0,0,2.77,1.06l1,3.13q.6.06,1.23.06t1.23-.06l1-3.13A10.32,10.32,0,0,0,57,48.75l2.75,1.73a13.35,13.35,0,0,0,1.91-1.69l-1.27-3.11a9.91,9.91,0,0,0,1.23-2.32Z"/><circle class="cls-3" cx="51.96" cy="39.8" r="6.01"/></svg>