<svg xmlns="http://www.w3.org/2000/svg" viewBox="0 0 100 100"><defs><style>.cls-1{fill:#f9fbed;stroke-miterlimit:10;}.cls-1,.cls-2,.cls-3,.cls-4{stroke:#0e8a16;stroke-width:1.74px;}.cls-2{fill:#cdde54;}.cls-2,.cls-3,.cls-4{stroke-linejoin:round;}.cls-3{fill:#fff;}.cls-4{fill:none;stroke-linecap:round;}</style></defs><title>Artboard 2</title><g id="thoughtBook"><circle class="cls-1" cx="50" cy="50.59" r="46.67"/><rect class="cls-2" x="30.7" y="23.88" width="38.73" height="50.94" rx="4.71"/><path class="cls-3" d="M32.15,30.88H68a1.23,1.23,0,0,1,1.23,1.23V61.16A1.23,1.23,0,0,1,68,62.39H32.15a1.22,1.22,0,0,1-1.22-1.22V32.11A1.23,1.23,0,0,1,32.15,30.88Z" transform="translate(96.7 -3.43) rotate(90)"/><circle class="cls-2" cx="50.06" cy="70.24" r="1.94"/><line class="cls-4" x1="41.97" y1="38.24" x2="58.16" y2="38.24"/><line class="cls-4" x1="41.97" y1="46.63" x2="58.16" y2="46.63"/><line class="cls-4" x1="41.97" y1="55.03" x2="53.18" y2="55.03"/><rect class="cls-2" x="55" y="35.75" width="27.45" height="7.97" transform="translate(-7.97 60.23) rotate(-45)"/><polygon class="cls-3" points="61.84 52.26 53.55 54.91 56.2 46.62 61.84 52.26"/></g></svg>