<svg xmlns="http://www.w3.org/2000/svg" viewBox="0 0 100 100"><defs><style>.cls-1{fill:#f9fbed;}.cls-1,.cls-2,.cls-4{stroke:#0e8a16;stroke-width:1.74px;}.cls-1,.cls-4{stroke-miterlimit:10;}.cls-2{fill:#cdde54;stroke-linejoin:round;}.cls-2,.cls-4{stroke-linecap:round;}.cls-3{fill:#0e8a16;}.cls-4{fill:none;}</style></defs><title>Artboard 2</title><g id="tryIt"><circle class="cls-1" cx="50.24" cy="50.59" r="46.67"/><path class="cls-2" d="M85.33,52.1c0-.5,0-1,0-1.51s0-1,0-1.51l-4.85-1.49a30.42,30.42,0,0,0-.55-3.44l4.17-2.91c-.27-1-.58-1.93-.93-2.87l-5.08.09a29.19,29.19,0,0,0-1.59-3.1l3.06-4.05c-.56-.84-1.15-1.66-1.78-2.45L73,30.52a28.55,28.55,0,0,0-2.46-2.46l1.66-4.8c-.79-.63-1.61-1.22-2.45-1.78l-4,3.06A29.19,29.19,0,0,0,62.58,23l.09-5.08c-.94-.35-1.9-.66-2.87-.93l-2.91,4.17a30.42,30.42,0,0,0-3.44-.55L52,15.71c-.5,0-1,0-1.51,0s-1,0-1.51,0l-1.48,4.85a30.06,30.06,0,0,0-3.44.55l-2.91-4.17c-1,.27-1.93.58-2.87.93L38.33,23a29.19,29.19,0,0,0-3.1,1.59l-4.06-3.06c-.84.56-1.65,1.15-2.44,1.78l1.66,4.8a28.55,28.55,0,0,0-2.46,2.46l-4.8-1.66c-.63.79-1.22,1.61-1.78,2.45l3.06,4.05a29.19,29.19,0,0,0-1.59,3.1l-5.08-.09c-.35.94-.66,1.9-.93,2.87L21,44.15a32.83,32.83,0,0,0-.54,3.44l-4.85,1.49c0,.5,0,1,0,1.51s0,1,0,1.51l4.85,1.48A32.42,32.42,0,0,0,21,57l-4.16,2.91c.27,1,.58,1.93.93,2.87l5.08-.09a29.19,29.19,0,0,0,1.59,3.1l-3.06,4.06c.56.84,1.15,1.65,1.78,2.44l4.8-1.66a28.55,28.55,0,0,0,2.46,2.46l-1.66,4.81c.79.62,1.6,1.21,2.44,1.77l4.06-3a31.12,31.12,0,0,0,3.1,1.58l-.09,5.08c.94.35,1.89.66,2.87.93L44,80.07a32.42,32.42,0,0,0,3.44.54l1.48,4.85c.5,0,1,0,1.51,0s1,0,1.51,0l1.49-4.85a32.83,32.83,0,0,0,3.44-.54l2.91,4.16c1-.27,1.93-.58,2.87-.93l-.09-5.08a31.12,31.12,0,0,0,3.1-1.58l4,3c.84-.56,1.66-1.15,2.45-1.77l-1.66-4.81A28.55,28.55,0,0,0,73,70.65l4.8,1.66c.63-.79,1.22-1.6,1.78-2.44L76.5,65.81a29.19,29.19,0,0,0,1.59-3.1l5.08.09c.35-.94.66-1.89.93-2.87L79.93,57a30.06,30.06,0,0,0,.55-3.44Z"/><path class="cls-3" d="M26.28,44.53V42H37.5v2.53H33.4V55.7h-3V44.53Z"/><path class="cls-3" d="M39.61,45.78v1.84h0a3.24,3.24,0,0,1,.52-.85,3.4,3.4,0,0,1,.75-.67,3.76,3.76,0,0,1,.9-.44,3.32,3.32,0,0,1,1-.15,1.92,1.92,0,0,1,.59.1v2.53a4.12,4.12,0,0,0-.46-.07l-.52,0a2.94,2.94,0,0,0-1.26.25,2.27,2.27,0,0,0-.84.68,2.81,2.81,0,0,0-.45,1,5.51,5.51,0,0,0-.13,1.25V55.7H37V45.78Z"/><path class="cls-3" d="M48.15,58.66a4,4,0,0,1-2.19.51c-.28,0-.56,0-.83,0s-.55,0-.84-.06V56.83l.79.08a7.3,7.3,0,0,0,.81,0,1.05,1.05,0,0,0,.79-.42,1.35,1.35,0,0,0,.26-.81,1.74,1.74,0,0,0-.11-.61l-3.48-9.31h2.9l2.25,6.79h0l2.16-6.79h2.82L49.38,56.93A3.36,3.36,0,0,1,48.15,58.66Z"/><path class="cls-3" d="M59.86,44.24V42h2.72v2.24Zm2.72,1.54V55.7H59.86V45.78Z"/><path class="cls-3" d="M70.18,45.78V47.6h-2v4.92a1.37,1.37,0,0,0,.22.92,1.39,1.39,0,0,0,.93.23l.44,0c.14,0,.27,0,.4-.06V55.7c-.23,0-.49.06-.77.08l-.82,0a7.69,7.69,0,0,1-1.2-.09,2.82,2.82,0,0,1-1-.34,1.73,1.73,0,0,1-.68-.71,2.46,2.46,0,0,1-.25-1.2V47.6H63.81V45.78h1.65v-3h2.73v3Z"/><path class="cls-3" d="M74.63,52.75v3h-3v-3Zm-.84-1.16H72.43l-.73-5.91V42h2.84v3.68Z"/><path class="cls-4" d="M29.13,58.89a22.89,22.89,0,0,0,42.65,0"/><path class="cls-4" d="M70.13,38.9a22.88,22.88,0,0,0-39.35,0"/></g></svg>